<?xml version="1.0" standalone="no"?>
<!DOCTYPE svg PUBLIC "-//W3C//DTD SVG 20010904//EN"
 "http://www.w3.org/TR/2001/REC-SVG-20010904/DTD/svg10.dtd">
<svg version="1.0" xmlns="http://www.w3.org/2000/svg"
 width="300.000000pt" height="168.000000pt" viewBox="0 0 300.000000 168.000000"
 preserveAspectRatio="xMidYMid meet">
<metadata>
Created by potrace 1.10, written by Peter Selinger 2001-2011
</metadata>
<g transform="translate(0.000000,168.000000) scale(0.100000,-0.100000)"
fill="#FFFFFF" stroke="none">
<path d="M754 1416 c-312 -104 -524 -290 -631 -551 -18 -44 -33 -85 -33 -91 0
-8 22 -6 73 4 104 21 327 21 397 0 116 -36 196 -112 207 -197 3 -23 7 -41 8
-41 1 0 28 12 60 26 165 76 346 24 520 -151 50 -49 104 -111 119 -136 l29 -46
50 75 c116 174 276 286 422 299 81 6 174 -13 242 -52 l43 -24 0 37 c1 86 64
162 167 203 51 20 76 23 203 23 126 0 225 -11 278 -31 15 -6 12 12 -24 127
-55 175 -216 340 -444 455 -64 32 -240 105 -254 105 -2 0 11 -30 30 -66 106
-203 -51 -330 -443 -360 l-90 -7 -21 125 c-12 68 -22 134 -22 146 0 43 -16 21
-41 -55 l-25 -78 -60 -3 -59 -3 -31 87 -31 87 -28 -152 -29 -153 -60 7 c-96
11 -254 43 -322 65 -206 69 -252 199 -115 323 23 20 35 37 29 37 -7 -1 -58
-16 -114 -34z m1643 -95 c180 -87 299 -182 380 -304 47 -70 93 -180 81 -192
-3 -4 -41 -2 -83 4 -156 22 -315 7 -401 -37 -54 -28 -101 -77 -131 -135 -27
-54 -19 -53 -123 -23 -104 30 -220 13 -333 -47 -71 -37 -178 -134 -232 -211
-22 -30 -45 -56 -51 -56 -5 0 -35 30 -65 66 -163 198 -381 292 -555 239 -71
-22 -79 -20 -99 26 -58 128 -240 200 -469 185 -55 -4 -112 -10 -128 -13 -24
-5 -28 -2 -28 16 0 57 106 216 206 310 79 75 148 120 260 173 97 45 119 48
107 16 -4 -13 -8 -46 -8 -75 0 -42 5 -58 31 -90 78 -97 232 -154 516 -188 51
-6 59 -5 81 17 15 15 28 45 36 86 7 34 14 62 17 62 3 0 17 -9 31 -20 37 -29
118 -28 150 2 29 27 38 18 47 -54 5 -34 15 -58 32 -75 25 -25 29 -26 113 -20
195 14 351 63 432 135 63 56 84 111 75 192 -4 33 -3 60 1 60 4 0 54 -22 110
-49z"/>
</g>
</svg>
