<?xml version="1.0" standalone="no"?>
<!DOCTYPE svg PUBLIC "-//W3C//DTD SVG 20010904//EN"
 "http://www.w3.org/TR/2001/REC-SVG-20010904/DTD/svg10.dtd">
<svg version="1.0" xmlns="http://www.w3.org/2000/svg"
 width="300.000000pt" height="199.000000pt" viewBox="0 0 300.000000 199.000000"
 preserveAspectRatio="xMidYMid meet">
<metadata>
Created by potrace 1.10, written by Peter Selinger 2001-2011
</metadata>
<g transform="translate(0.000000,199.000000) scale(0.100000,-0.100000)"
fill="#39FF14" stroke="none">
<path d="M1060 1795 c0 -48 2 -55 20 -55 18 0 20 -7 20 -70 0 -60 2 -70 18
-70 14 0 17 -9 17 -50 0 -41 -3 -50 -17 -50 -15 0 -18 -10 -18 -70 0 -62 2
-70 19 -70 15 0 18 -5 14 -21 -5 -18 -3 -20 16 -14 17 5 21 2 21 -14 0 -17 6
-21 35 -21 28 0 35 -4 35 -19 0 -11 6 -18 16 -17 13 1 16 -10 17 -52 2 -43 -1
-52 -15 -52 -15 0 -18 -9 -18 -56 0 -52 -1 -55 -21 -49 -19 6 -20 3 -18 -32 3
-31 0 -37 -14 -35 -14 2 -17 -6 -17 -53 0 -49 -2 -55 -21 -55 -19 0 -21 -5
-17 -50 2 -42 0 -50 -14 -50 -15 0 -18 -9 -18 -55 0 -48 -2 -55 -20 -55 -18 0
-20 -7 -20 -70 0 -63 2 -70 20 -70 17 0 20 -7 20 -50 0 -44 -2 -50 -21 -50
-15 0 -19 -4 -15 -16 4 -11 -1 -18 -14 -21 -15 -4 -20 -14 -20 -39 0 -27 -4
-34 -20 -34 -16 0 -20 -7 -20 -35 0 -28 4 -35 20 -35 13 0 20 7 20 20 0 16 7
20 35 20 l35 0 0 -55 c0 -41 4 -55 14 -55 10 0 16 13 18 37 2 27 8 39 21 41
14 3 17 -4 17 -38 0 -34 3 -41 17 -38 14 2 17 13 14 56 -2 47 0 52 18 52 15 0
21 6 21 21 0 14 5 19 17 17 26 -5 29 -38 4 -38 -17 0 -21 -6 -21 -35 0 -33 2
-35 35 -35 33 0 35 -2 35 -35 0 -39 24 -50 33 -15 3 13 10 18 21 14 13 -5 16
1 16 30 0 25 4 36 15 36 11 0 15 11 15 40 0 33 3 40 20 40 17 0 20 -7 20 -40
0 -29 4 -40 15 -40 8 0 15 -7 15 -15 0 -8 9 -15 20 -15 13 0 20 -7 20 -20 0
-11 7 -20 15 -20 8 0 15 9 15 20 0 13 7 20 20 20 14 0 20 7 20 21 0 24 23 21
28 -4 2 -10 -3 -17 -12 -17 -9 0 -16 -8 -16 -20 0 -16 7 -20 35 -20 33 0 35 2
35 35 0 28 -4 35 -20 35 -19 0 -20 7 -20 90 0 83 1 90 20 90 11 0 20 7 20 15
0 8 7 15 15 15 8 0 15 9 15 20 0 16 7 20 35 20 24 0 35 5 35 15 0 9 9 15 21
15 18 0 21 5 17 35 -3 29 -1 35 14 35 11 0 18 7 18 20 0 14 7 20 21 20 15 0
19 5 15 15 -4 10 1 15 14 15 16 0 20 7 20 35 0 29 4 35 21 35 20 0 21 4 16 55
-5 50 -4 55 14 55 15 0 19 7 19 35 0 28 4 35 20 35 19 0 20 7 20 190 0 183 -1
190 -20 190 -13 0 -20 7 -20 19 0 12 -7 18 -17 17 -12 -1 -17 5 -15 17 2 14
-4 17 -35 17 l-38 0 3 -89 c3 -73 6 -89 18 -84 12 4 14 -14 14 -106 0 -94 -2
-110 -15 -105 -13 5 -15 -8 -15 -85 0 -84 -1 -91 -20 -91 -16 0 -20 -7 -20
-35 0 -24 -5 -35 -15 -35 -10 0 -15 -11 -15 -35 0 -28 -4 -35 -20 -35 -11 0
-20 -7 -20 -15 0 -8 -7 -15 -15 -15 -8 0 -15 -9 -15 -20 0 -16 -7 -20 -37 -20
l-38 0 3 55 c4 50 2 55 -17 55 -19 0 -21 6 -21 71 0 59 -3 70 -15 65 -13 -4
-15 7 -15 70 0 71 -1 75 -20 69 -18 -6 -20 -2 -20 49 0 43 -3 56 -15 56 -12 0
-15 13 -15 56 0 51 -2 55 -20 49 -18 -6 -20 -2 -20 35 0 37 2 41 20 35 16 -5
20 -2 20 14 0 17 6 21 35 21 28 0 35 4 35 20 0 13 5 18 15 14 10 -4 15 0 15
15 0 14 6 21 20 21 18 0 20 7 20 70 0 63 -2 70 -20 70 -17 0 -20 7 -20 50 0
44 3 50 21 50 19 0 20 5 17 70 -3 61 -1 70 15 70 14 0 17 9 17 55 0 42 -3 55
-15 55 -8 0 -15 -9 -15 -20 0 -13 -7 -20 -20 -20 -11 0 -20 -7 -20 -15 0 -8
-7 -15 -15 -15 -8 0 -15 -9 -15 -20 0 -13 -7 -20 -20 -20 -11 0 -20 -7 -20
-15 0 -8 -7 -15 -15 -15 -8 0 -15 -9 -15 -20 0 -13 -7 -20 -20 -20 -11 0 -20
-7 -20 -15 0 -12 -18 -15 -105 -15 -87 0 -105 3 -105 15 0 8 -7 15 -15 15 -8
0 -15 9 -15 20 0 13 -7 20 -20 20 -11 0 -20 7 -20 15 0 8 -7 15 -15 15 -8 0
-15 9 -15 20 0 13 -7 20 -20 20 -11 0 -20 7 -20 15 0 8 -7 15 -15 15 -8 0 -15
9 -15 20 0 13 -7 20 -20 20 -18 0 -20 -7 -20 -55z m117 -104 c10 -10 39 -37
65 -59 52 -45 48 -53 -25 -50 -47 2 -77 38 -77 92 0 40 11 45 37 17z m433 -16
c0 -20 -7 -49 -15 -65 -13 -26 -21 -30 -54 -30 -72 0 -72 7 -7 70 34 33 64 60
69 60 4 0 7 -16 7 -35z m-175 -85 c3 -5 -6 -21 -21 -35 -22 -21 -25 -30 -20
-60 6 -33 5 -35 -19 -35 -27 0 -33 18 -13 38 9 9 9 17 -2 36 -7 14 -16 23 -20
21 -9 -6 -20 31 -12 39 9 10 101 6 107 -4z m-195 -75 c0 -48 -2 -55 -20 -55
-13 0 -20 7 -20 20 0 11 -7 20 -15 20 -8 0 -15 9 -15 20 0 13 5 18 15 14 10
-4 15 0 15 15 0 14 6 21 20 21 18 0 20 -7 20 -55z m70 35 c0 -14 6 -20 17 -18
10 2 19 -4 21 -14 2 -13 -3 -18 -17 -18 -14 0 -21 -6 -21 -20 0 -13 -7 -20
-20 -20 -18 0 -20 7 -20 55 0 48 2 55 20 55 13 0 20 -7 20 -20z m170 -35 c0
-42 -3 -55 -15 -55 -8 0 -15 9 -15 20 0 13 -7 20 -20 20 -14 0 -20 7 -20 21 0
16 4 19 20 14 16 -5 20 -2 20 14 0 12 7 21 15 21 12 0 15 -13 15 -55z m70 35
c0 -13 7 -20 20 -20 11 0 20 -7 20 -15 0 -8 -9 -15 -20 -15 -13 0 -20 -7 -20
-20 0 -11 -6 -20 -14 -20 -10 0 -15 16 -18 55 -3 47 0 55 15 55 10 0 17 -8 17
-20z m-369 -79 c-17 -11 6 -18 68 -23 30 -3 35 -7 35 -30 1 -15 14 -41 31 -58
41 -43 84 -41 129 4 32 34 43 66 22 66 -27 1 23 20 51 20 39 0 65 9 57 21 -6
11 -1 11 20 3 11 -4 16 -19 16 -50 0 -37 -5 -46 -33 -68 -19 -15 -39 -26 -45
-26 -19 0 -80 -65 -87 -92 -4 -17 0 -40 14 -66 12 -23 21 -52 21 -64 0 -13 7
-32 15 -42 8 -11 15 -30 15 -43 0 -13 9 -41 20 -63 11 -22 20 -57 20 -78 0
-21 7 -47 15 -58 8 -10 15 -37 15 -59 0 -22 9 -58 20 -80 11 -22 19 -52 20
-67 0 -41 45 -71 92 -64 48 8 48 2 1 -23 -21 -11 -58 -40 -82 -65 -40 -41 -44
-50 -50 -108 l-6 -63 -22 38 c-35 58 -44 58 -146 5 -14 -7 -23 -3 -38 16 -23
29 -60 34 -79 11 -7 -8 -21 -15 -30 -15 -10 0 -32 -11 -48 -25 -30 -25 -42
-24 -42 4 0 8 -12 27 -26 42 -21 22 -24 30 -15 47 15 28 13 82 -4 112 -19 32
-18 100 0 124 8 11 15 34 15 50 0 17 7 40 15 50 8 11 15 30 15 43 0 13 9 40
20 60 11 21 20 47 20 58 0 12 16 50 35 85 19 36 35 77 35 91 0 14 7 34 15 45
8 10 15 40 15 66 0 39 -6 54 -31 82 -16 19 -40 38 -52 42 -40 12 -87 65 -87
99 0 34 15 55 40 55 13 0 13 -2 1 -9z m269 -61 c0 -14 -7 -20 -21 -20 -15 0
-19 -5 -15 -15 4 -12 -3 -15 -34 -15 -29 0 -40 4 -40 15 0 8 -7 15 -15 15 -8
0 -15 9 -15 20 0 18 7 20 70 20 63 0 70 -2 70 -20z m510 -311 c0 -149 -1 -159
-25 -200 l-25 -44 0 45 c1 25 7 54 15 64 11 14 15 47 15 116 0 69 -4 102 -15
116 -8 10 -15 39 -15 63 l0 44 25 -23 c25 -23 25 -26 25 -181z m-820 -784 c0
-28 -4 -35 -20 -35 -16 0 -20 7 -20 35 0 28 4 35 20 35 16 0 20 -7 20 -35z
m208 18 c-5 -26 -38 -29 -38 -4 0 15 6 21 21 21 14 0 19 -5 17 -17z m172 -3
c0 -13 -7 -20 -20 -20 -13 0 -20 7 -20 20 0 13 7 20 20 20 13 0 20 -7 20 -20z
m-140 -70 c0 -13 -7 -20 -20 -20 -13 0 -20 7 -20 20 0 13 7 20 20 20 13 0 20
-7 20 -20z m170 -15 c0 -24 -5 -35 -15 -35 -8 0 -15 7 -15 15 0 8 -9 15 -20
15 -13 0 -20 7 -20 20 0 16 7 20 35 20 33 0 35 -2 35 -35z"/>
</g>
</svg>
