<?xml version="1.0" standalone="no"?>
<!DOCTYPE svg PUBLIC "-//W3C//DTD SVG 20010904//EN"
 "http://www.w3.org/TR/2001/REC-SVG-20010904/DTD/svg10.dtd">
<svg version="1.0" xmlns="http://www.w3.org/2000/svg"
 width="300.000000pt" height="300.000000pt" viewBox="0 0 300.000000 300.000000"
 preserveAspectRatio="xMidYMid meet">
<metadata>
Created by potrace 1.10, written by Peter Selinger 2001-2011
</metadata>
<g transform="translate(0.000000,300.000000) scale(0.100000,-0.100000)"
fill="#000000" stroke="none">
<path d="M625 2092 c-303 -125 -540 -355 -609 -591 -9 -30 -16 -58 -16 -61 0
-4 24 -1 53 7 72 21 288 28 371 14 179 -31 296 -124 296 -235 l0 -34 71 36
c67 35 77 37 163 37 71 -1 104 -6 149 -24 139 -55 314 -205 364 -312 16 -32
31 -58 34 -58 4 -1 10 11 13 26 25 99 231 284 383 344 45 18 78 23 149 24 86
0 96 -2 163 -37 l71 -36 0 29 c0 42 26 99 63 137 78 82 217 118 427 109 77 -3
156 -12 183 -20 l48 -15 -7 31 c-53 250 -304 501 -628 631 -115 47 -127 46
-82 -4 32 -35 36 -46 36 -92 0 -84 -57 -173 -150 -234 -80 -53 -273 -94 -438
-94 l-58 0 -17 83 c-10 46 -20 114 -24 152 l-6 70 -24 -50 c-12 -27 -25 -63
-29 -80 -5 -30 -6 -30 -74 -30 -68 0 -69 0 -75 30 -3 17 -16 54 -29 83 l-23
54 -7 -79 c-3 -43 -14 -112 -24 -153 l-18 -75 -114 2 c-140 2 -242 22 -335 67
-105 50 -190 148 -195 226 -5 65 1 83 39 121 34 34 36 39 17 38 -11 0 -61 -17
-111 -37z m15 -96 c0 -59 32 -134 79 -184 17 -18 30 -36 30 -39 -1 -4 17 -16
40 -29 22 -12 46 -26 53 -31 60 -48 439 -106 483 -75 20 14 56 72 51 81 -9 14
5 42 17 34 6 -4 8 2 5 15 -8 27 8 38 29 21 18 -15 123 -15 152 0 20 11 28 2
37 -49 9 -43 34 -87 59 -100 36 -19 269 -3 363 26 7 2 14 4 17 4 15 1 95 37
127 57 21 13 46 23 55 24 10 0 13 3 7 5 -6 3 6 23 28 47 21 23 44 54 51 70 6
15 16 27 20 27 5 0 6 4 2 9 -3 5 -1 12 5 16 6 4 8 11 5 16 -4 5 -2 9 3 9 5 0
7 23 5 50 -3 40 -1 50 12 50 8 0 15 -4 15 -10 0 -5 6 -10 13 -10 18 0 67 -24
67 -32 0 -5 9 -8 21 -8 13 0 18 -4 13 -12 -4 -6 -3 -8 4 -4 12 7 135 -68 126
-77 -3 -3 4 -8 16 -12 24 -8 72 -50 65 -57 -3 -3 9 -13 27 -21 18 -9 29 -17
25 -17 -4 0 -2 -6 5 -14 7 -8 18 -11 23 -8 6 3 7 1 2 -3 -4 -5 6 -23 23 -40
34 -35 60 -77 91 -145 11 -25 24 -52 29 -61 7 -14 3 -18 -20 -21 -16 -2 -36 0
-45 5 -22 12 -330 10 -330 -3 0 -1 -8 -3 -18 -5 -30 -6 -132 -49 -139 -60 -4
-5 -8 -6 -8 -2 0 22 -100 -81 -119 -124 -14 -31 -21 -36 -45 -33 -16 2 -36 6
-45 10 -33 15 -48 16 -139 17 -54 0 -97 -4 -104 -11 -6 -6 -17 -8 -24 -5 -8 3
-14 0 -14 -6 0 -6 -3 -10 -7 -9 -18 3 -139 -64 -163 -91 -3 -3 -18 -14 -35
-23 -16 -10 -29 -22 -28 -28 2 -5 -3 -10 -10 -10 -14 0 -71 -58 -121 -124
l-28 -38 -18 29 c-9 15 -34 46 -54 67 -20 22 -36 44 -36 49 0 4 -5 5 -12 1 -8
-5 -9 -2 -5 10 4 10 3 15 -3 11 -5 -3 -21 5 -33 19 -13 14 -26 23 -29 21 -3
-3 -16 6 -29 20 -13 13 -29 25 -36 25 -6 0 -13 3 -15 8 -5 11 -114 62 -133 62
-9 0 -14 3 -12 8 3 4 -5 8 -16 8 -12 1 -45 5 -72 9 -29 4 -74 2 -105 -5 -30
-6 -67 -14 -82 -17 -15 -3 -26 -9 -23 -13 3 -5 -4 -6 -15 -3 -12 3 -19 8 -16
10 3 3 -2 12 -10 20 -8 8 -12 19 -9 24 4 5 1 9 -5 9 -7 0 -9 7 -6 17 4 10 4
15 1 11 -4 -3 -23 10 -42 30 -20 21 -32 30 -28 22 4 -8 -4 -2 -19 14 -14 16
-26 26 -26 22 0 -3 -21 4 -47 17 -27 14 -54 22 -62 19 -9 -3 -11 0 -6 8 6 10
2 12 -13 8 -12 -4 -22 -3 -22 0 0 7 -62 12 -155 15 -22 1 -56 -2 -75 -6 -26
-5 -31 -4 -20 4 12 8 10 10 -10 5 -14 -3 -43 -6 -65 -7 -32 0 -36 -2 -20 -9
20 -9 20 -9 0 -8 -24 0 -75 16 -57 17 7 1 11 5 8 9 -7 11 38 107 67 143 41 51
62 84 59 92 -1 4 4 7 10 7 7 0 21 12 32 28 10 15 43 45 74 67 30 22 69 52 86
67 17 15 34 28 37 28 3 0 45 22 92 48 47 27 93 49 102 49 11 0 15 -12 15 -51z"/>
<path d="M1560 901 c0 -22 4 -26 30 -26 25 0 30 4 30 25 0 21 -5 25 -30 26
-26 1 -30 -2 -30 -25z"/>
</g>
</svg>
