<?xml version="1.0" standalone="no"?>
<!DOCTYPE svg PUBLIC "-//W3C//DTD SVG 20010904//EN"
 "http://www.w3.org/TR/2001/REC-SVG-20010904/DTD/svg10.dtd">
<svg version="1.0" xmlns="http://www.w3.org/2000/svg"
 width="300.000000pt" height="300.000000pt" viewBox="0 0 300.000000 300.000000"
 preserveAspectRatio="xMidYMid meet">
<metadata>
Created by potrace 1.10, written by Peter Selinger 2001-2011
</metadata>
<g transform="translate(0.000000,300.000000) scale(0.100000,-0.100000)"
fill="#39FF14" stroke="none">
<path d="M744 2520 c-35 -11 -54 -45 -54 -94 0 -33 -1 -34 -50 -40 -64 -9 -86
-30 -95 -95 -7 -50 -8 -51 -40 -51 -69 0 -105 -38 -105 -110 0 -25 -4 -28 -50
-34 -88 -12 -90 -17 -90 -230 0 -216 4 -226 86 -235 l49 -6 5 -330 c3 -181 9
-337 13 -346 11 -22 51 -39 92 -39 32 0 33 -1 40 -51 9 -65 31 -86 95 -95 l50
-7 0 -37 c0 -21 3 -46 6 -55 9 -23 57 -45 99 -45 30 0 35 -3 35 -22 0 -48 20
-95 46 -106 18 -9 192 -12 628 -12 690 0 645 -6 655 86 l6 49 47 5 c62 7 85
30 93 91 6 43 10 49 31 49 31 0 89 24 100 41 5 8 11 34 14 59 l5 45 48 5 c56
7 75 24 87 76 5 21 10 175 10 342 l0 302 35 0 c53 0 84 19 96 59 6 21 9 102 7
197 -4 188 -8 198 -88 209 -51 7 -60 18 -60 76 0 36 -30 59 -86 67 l-49 7 -6
47 c-4 26 -10 52 -14 59 -10 15 -69 39 -99 39 -21 0 -25 6 -31 49 -11 78 -26
86 -162 86 -106 0 -116 -2 -133 -22 -10 -12 -21 -43 -24 -68 l-7 -45 -485 0
-484 0 0 29 c0 41 -19 88 -38 96 -28 12 -195 15 -228 5z m230 -25 c8 -8 18
-40 21 -70 l7 -55 498 0 498 0 4 56 c7 78 17 84 145 84 126 0 143 -11 143 -90
l0 -50 48 0 c68 0 89 -18 97 -84 l7 -53 51 -6 c64 -8 77 -22 85 -88 l7 -54 54
-5 c79 -8 81 -13 81 -219 0 -97 -4 -182 -8 -189 -10 -15 -66 -32 -104 -32
l-27 0 -3 -340 c-3 -385 1 -366 -85 -377 l-51 -6 -7 -53 c-8 -66 -29 -84 -97
-84 l-48 0 0 -49 c0 -67 -21 -90 -86 -98 l-52 -5 -6 -51 c-10 -89 43 -82 -652
-82 -598 0 -616 1 -630 19 -8 11 -14 41 -14 67 l0 46 -52 6 c-66 8 -87 29 -95
95 l-6 52 -44 0 c-61 0 -93 32 -93 95 0 42 -2 45 -27 45 -46 0 -100 19 -109
38 -5 9 -10 166 -12 348 l-3 331 -57 9 c-80 13 -83 21 -80 227 3 164 4 169 27
188 15 12 39 19 66 19 l43 0 6 48 c4 26 9 55 12 64 5 18 60 38 107 38 25 0 27
3 27 45 0 63 32 95 95 95 42 0 45 2 45 28 0 38 17 94 32 104 7 4 61 8 120 8
82 0 110 -4 122 -15z"/>
<path d="M780 2367 l0 -74 -76 5 -76 5 4 -77 3 -76 -72 0 -73 0 0 -72 0 -73
-72 3 -73 3 0 -145 0 -146 73 0 72 0 0 -360 0 -360 70 0 70 0 0 -75 0 -75 75
0 75 0 0 -70 0 -70 70 0 70 0 0 -72 0 -73 577 2 576 2 -2 71 -2 70 75 0 76 0
0 70 0 70 70 0 70 0 0 75 0 75 75 0 75 0 -2 360 -3 360 73 0 72 0 0 146 0 145
-72 -2 -73 -2 3 71 4 72 -76 0 -76 0 0 76 0 77 -70 -5 -70 -5 0 73 0 74 -76 0
-75 0 2 -71 2 -70 -576 -2 -577 -2 0 73 0 72 -70 0 -70 0 0 -73z m101 24 c0
-3 1 -23 3 -44 2 -23 12 -47 27 -63 21 -22 31 -25 74 -22 27 2 57 6 65 9 23 6
21 -109 -3 -122 -12 -7 -17 -23 -17 -53 0 -48 -9 -56 -63 -56 -38 0 -77 -35
-77 -69 0 -60 -9 -71 -57 -71 -59 0 -93 -34 -93 -95 0 -47 -9 -55 -66 -55 -22
0 -37 -6 -40 -15 -5 -11 -23 -15 -74 -15 -51 0 -69 4 -74 15 -3 10 -19 15 -44
15 -21 0 -43 5 -50 12 -14 14 -17 194 -3 202 4 3 28 8 51 11 60 7 80 28 80 81
0 49 17 64 73 64 45 0 70 29 77 88 l5 47 47 5 c66 7 88 28 88 85 0 38 4 47 23
54 22 8 46 5 48 -8z m1299 -26 c0 -42 22 -90 45 -99 9 -3 34 -6 55 -6 42 0 50
-10 50 -68 0 -49 23 -72 75 -72 51 0 65 -13 65 -62 0 -49 36 -89 77 -86 16 1
38 -2 51 -6 21 -7 22 -13 22 -100 0 -58 -4 -96 -12 -104 -7 -7 -31 -12 -54
-12 -28 0 -44 -5 -48 -15 -4 -11 -22 -15 -69 -15 -45 0 -68 5 -77 15 -7 8 -29
15 -49 15 -48 0 -61 14 -61 67 0 54 -23 76 -88 83 l-47 5 -5 47 c-8 63 -32 88
-85 88 -51 0 -65 13 -65 61 0 20 -7 42 -15 49 -10 9 -15 31 -15 72 0 54 2 59
18 52 9 -4 37 -9 62 -12 65 -5 91 18 98 86 4 51 5 52 38 52 32 0 34 -2 34 -35z
m-285 -145 l0 -25 -390 -3 c-349 -2 -391 -1 -402 14 -6 9 -9 22 -6 30 4 12 67
14 402 12 l396 -3 0 -25z m35 -140 l0 -70 73 0 72 0 -3 -76 -4 -76 76 4 76 3
0 -72 0 -73 70 0 70 0 0 -360 0 -360 -70 0 -70 0 0 -75 0 -75 -75 0 -75 0 0
-70 0 -70 -575 0 -575 0 0 73 0 72 -70 -3 -70 -4 0 76 0 76 -75 0 -75 0 0 360
0 360 76 0 75 0 -2 72 -2 71 71 -2 72 -2 0 75 0 76 76 0 75 0 -7 70 -7 70 437
0 436 0 0 -70z m-1345 -715 l0 -320 -25 0 -25 0 -3 310 c-1 170 0 316 3 323 3
7 15 12 27 10 l23 -3 0 -320z m1876 313 c2 -7 2 -152 -1 -323 -5 -293 -6 -310
-24 -313 -10 -2 -22 2 -27 10 -10 15 -12 621 -2 631 11 12 51 8 54 -5z m-1747
-724 c9 -3 16 -17 16 -30 0 -19 -5 -24 -25 -24 -20 0 -25 5 -25 23 0 34 8 41
34 31z m1596 -9 c18 -21 5 -45 -25 -45 -40 0 -34 54 6 59 4 1 12 -6 19 -14z
m-1435 -165 c0 -18 -6 -26 -23 -28 -24 -4 -38 18 -28 44 3 9 15 14 28 12 17
-2 23 -10 23 -28z m1299 14 c8 -21 -11 -44 -35 -44 -14 0 -19 7 -19 30 0 25 4
30 24 30 13 0 27 -7 30 -16z m-156 -133 c8 -5 12 -17 10 -27 -3 -18 -24 -19
-531 -22 -465 -2 -528 0 -533 13 -4 8 -1 22 6 30 11 13 83 15 524 15 281 0
517 -4 524 -9z"/>
<path d="M1067 1718 l1 -143 71 -2 71 -2 0 144 0 145 -72 0 -73 0 2 -142z m97
86 c3 -9 6 -46 6 -84 0 -84 -6 -100 -36 -100 -24 0 -24 2 -24 93 0 52 3 97 7
100 12 13 41 7 47 -9z"/>
<path d="M1787 1718 l2 -143 70 -2 71 -2 0 144 0 145 -72 0 -73 0 2 -142z m98
2 l0 -95 -27 -3 -28 -3 0 94 c0 51 3 97 7 101 4 4 16 6 28 4 18 -3 20 -10 20
-98z"/>
<path d="M1350 1433 l0 -142 145 -3 145 -3 0 145 0 145 -145 0 -145 0 0 -142z
m249 93 c14 -17 13 -162 -1 -189 -8 -15 -21 -17 -106 -15 l-97 3 -3 85 c-5
135 -8 130 102 130 68 0 97 -4 105 -14z"/>
<path d="M780 1285 l0 -145 135 0 c100 0 137 3 140 13 2 6 6 72 7 145 l3 132
-142 0 -143 0 0 -145z m251 109 c5 -7 8 -59 7 -115 l-3 -104 -109 -3 c-81 -2
-112 1 -118 10 -4 7 -8 57 -8 110 0 82 3 99 18 108 23 14 201 9 213 -6z"/>
<path d="M1930 1291 c0 -117 2 -140 16 -145 9 -3 74 -6 145 -6 l129 0 0 145 0
145 -145 0 -145 0 0 -139z m250 103 c7 -7 10 -49 8 -115 l-3 -104 -112 -3
-113 -3 0 114 c0 63 2 116 5 118 10 10 204 4 215 -7z"/>
<path d="M1065 1070 l0 -70 73 0 72 0 0 -75 0 -75 290 0 290 0 0 75 0 75 70 0
70 0 0 70 0 70 -72 0 -73 0 3 -70 4 -70 -291 0 -291 0 0 70 0 70 -72 0 -73 0
0 -70z m94 16 c15 -18 3 -46 -20 -46 -22 0 -34 22 -25 45 7 19 30 19 45 1z
m719 5 c21 -13 10 -46 -16 -49 -24 -4 -38 18 -28 43 6 17 24 19 44 6z m-154
-137 c9 -3 16 -17 16 -30 l0 -24 -240 0 c-206 0 -241 2 -246 15 -4 8 -1 22 6
30 10 12 50 15 230 15 120 0 225 -3 234 -6z"/>
</g>
</svg>
