<?xml version="1.0" standalone="no"?>
<!DOCTYPE svg PUBLIC "-//W3C//DTD SVG 20010904//EN"
 "http://www.w3.org/TR/2001/REC-SVG-20010904/DTD/svg10.dtd">
<svg version="1.0" xmlns="http://www.w3.org/2000/svg"
 width="300.000000pt" height="225.000000pt" viewBox="0 0 300.000000 225.000000"
 preserveAspectRatio="xMidYMid meet">
<metadata>
Created by potrace 1.10, written by Peter Selinger 2001-2011
</metadata>
<g transform="translate(0.000000,225.000000) scale(0.100000,-0.100000)"
fill="#FFFFFF" stroke="none">
<path d="M1305 2043 c-390 -83 -683 -402 -736 -800 -27 -203 16 -408 123 -594
l40 -69 54 0 55 0 -3 -195 -3 -195 665 0 665 0 -3 195 -3 195 54 0 55 0 39 67
c328 556 12 1267 -619 1397 -97 20 -288 20 -383 -1z m380 -22 c341 -70 613
-330 702 -670 20 -79 25 -120 25 -226 0 -164 -28 -282 -99 -418 l-49 -92 -62
-3 -62 -3 0 -199 0 -200 -640 0 -640 0 0 200 0 199 -62 3 -62 3 -49 92 c-69
133 -99 254 -99 413 -1 254 91 479 269 655 217 215 529 308 828 246z"/>
<path d="M1331 1985 c-142 -31 -262 -86 -371 -170 -233 -179 -364 -489 -330
-785 12 -109 58 -255 104 -331 l32 -54 137 -3 c75 -1 137 -1 137 1 0 3 -16 22
-36 43 -99 108 -155 248 -161 409 -8 178 38 319 147 452 116 143 326 243 510
243 184 0 394 -100 510 -243 109 -133 155 -274 148 -452 -7 -162 -59 -296
-160 -406 -21 -23 -38 -43 -38 -45 0 -2 62 -2 137 -1 l137 2 32 54 c18 29 46
95 63 146 191 575 -233 1159 -837 1154 -54 0 -126 -7 -161 -14z m213 -51 c19
-18 21 -65 4 -82 -7 -7 -21 -12 -33 -12 -29 0 -45 19 -45 51 0 29 23 59 45 59
7 0 21 -7 29 -16z m-104 -15 c13 -23 -2 -49 -26 -49 -8 0 -14 -9 -14 -20 0
-34 -17 -22 -24 18 -11 66 -9 72 24 72 19 0 33 -7 40 -21z m173 -24 c-5 -41
-4 -45 16 -45 11 0 21 -4 21 -10 0 -12 -56 -14 -63 -2 -11 16 6 102 19 102 10
0 12 -11 7 -45z m-306 -17 c16 -58 16 -62 5 -66 -5 -1 -14 12 -19 30 -9 28
-11 30 -12 9 -1 -24 -1 -24 -22 -5 -22 19 -22 19 -14 -6 11 -37 11 -38 0 -41
-11 -5 -41 88 -32 98 4 3 15 -1 25 -10 25 -23 32 -21 32 8 0 40 25 29 37 -17z
m388 -5 c-7 -26 -17 -49 -23 -51 -15 -5 -15 -2 -1 54 6 24 17 44 24 44 9 0 9
-10 0 -47z m104 13 c9 -11 9 -16 0 -21 -6 -4 -15 -2 -19 5 -13 20 -40 3 -40
-25 0 -18 5 -25 20 -25 21 0 27 -15 10 -25 -16 -10 -60 23 -60 43 0 48 62 81
89 48z m76 -28 c35 -16 32 -31 -5 -23 -34 7 -39 -1 -13 -21 10 -7 15 -16 11
-20 -4 -4 -14 -2 -21 4 -8 7 -17 9 -21 5 -4 -4 3 -15 16 -24 31 -24 17 -34
-21 -15 l-31 16 22 45 c24 49 26 50 63 33z m-692 -33 c44 -42 46 -49 11 -41
-20 5 -27 3 -31 -14 -10 -37 -33 -23 -33 19 0 22 -3 46 -6 55 -10 27 19 18 59
-19z m-89 -45 c15 -23 24 -46 20 -52 -4 -7 -10 -5 -16 6 -11 19 -38 21 -38 3
0 -7 5 -18 11 -24 7 -7 7 -13 0 -17 -5 -4 -24 14 -40 38 -20 29 -27 47 -20 51
6 4 16 -1 23 -11 17 -23 40 -10 26 16 -25 47 1 39 34 -10z m896 0 c11 -11 20
-27 20 -35 0 -21 -36 -55 -57 -55 -10 0 -27 7 -37 15 -19 14 -18 16 9 55 32
46 37 48 65 20z m-1009 -43 c-8 -8 -2 -20 20 -43 19 -20 27 -34 20 -39 -6 -3
-22 7 -36 23 -19 22 -31 29 -48 25 -21 -5 -20 -4 7 25 16 17 33 29 38 26 6 -4
5 -11 -1 -17z m1097 -30 c26 -27 17 -45 -10 -20 -22 19 -36 10 -18 -12 17 -20
5 -32 -15 -15 -22 19 -31 4 -11 -19 26 -28 3 -34 -24 -6 l-23 24 34 36 c18 19
36 35 39 35 4 0 16 -10 28 -23z m-1134 -48 c30 -24 33 -45 9 -71 -21 -23 -34
-23 -67 3 -31 25 -33 42 -6 69 25 25 31 25 64 -1z m1196 -23 c24 -45 -14 -84
-49 -52 -13 12 -21 14 -26 6 -3 -5 -11 -7 -17 -4 -7 5 4 20 28 41 21 18 42 33
45 33 3 0 11 -11 19 -24z m-1300 -59 c0 -7 -5 -18 -12 -25 -8 -8 -8 -15 2 -27
17 -20 50 -19 50 1 0 10 -6 14 -15 10 -9 -3 -15 0 -15 9 0 23 17 26 40 7 19
-15 21 -22 11 -39 -16 -30 -47 -38 -76 -19 -27 17 -32 45 -15 77 12 22 30 25
30 6z m1360 -28 c0 -17 -62 -89 -72 -83 -6 4 -6 10 1 17 15 15 -5 48 -26 40
-11 -4 -14 -2 -11 8 7 22 108 39 108 18z m50 -134 c-8 -9 -22 -14 -32 -12 -11
3 -24 -3 -32 -14 -11 -16 -15 -17 -19 -5 -3 8 1 20 8 26 19 16 10 29 -15 23
-39 -10 -19 14 28 33 l47 21 14 -28 c12 -24 12 -31 1 -44z m-1486 20 c-7 -27
10 -35 20 -10 9 26 27 17 20 -10 -5 -19 -2 -25 10 -25 9 0 16 -7 16 -15 0 -8
-2 -15 -4 -15 -8 0 -96 41 -96 45 0 2 4 15 10 29 12 34 32 34 24 1z m104 -2
c-5 -25 -28 -28 -28 -4 0 12 6 21 16 21 9 0 14 -7 12 -17z m1419 -78 c9 -28 8
-35 -2 -35 -7 0 -15 5 -17 11 -2 7 -12 7 -31 0 -35 -14 -57 -14 -57 -1 0 5 18
14 40 20 24 6 40 17 40 25 0 28 17 15 27 -20z m-1499 -11 c26 -18 28 -41 5
-66 -20 -22 -42 -23 -71 -2 -26 18 -28 46 -6 68 20 20 43 20 72 0z m1522 -63
c0 -6 -10 -17 -22 -25 l-21 -15 26 -10 c15 -6 27 -15 27 -19 0 -9 -55 -22 -92
-22 -31 0 -19 19 15 23 30 4 31 4 8 12 -23 8 -23 9 -5 23 18 13 17 14 -13 8
-25 -4 -33 -2 -33 9 0 13 22 19 88 23 12 1 22 -2 22 -7z m-1596 -86 c11 -8 32
-15 48 -15 18 0 28 -5 28 -15 0 -9 -9 -15 -25 -15 -15 0 -39 -7 -55 -15 -27
-14 -30 -14 -30 0 0 9 10 19 22 24 l22 8 -22 12 c-12 6 -22 16 -22 21 0 14 12
12 34 -5z m1606 -60 c0 -19 -4 -35 -10 -35 -5 0 -10 9 -10 20 0 11 -4 20 -10
20 -5 0 -10 -9 -10 -20 0 -11 -4 -20 -10 -20 -5 0 -10 9 -10 20 0 27 -18 25
-22 -2 -5 -34 -23 -27 -25 9 -1 31 0 32 45 36 26 2 50 4 55 5 4 1 7 -14 7 -33z
m-1620 -41 c0 -14 7 -16 45 -11 36 5 45 4 45 -8 0 -11 -11 -15 -40 -15 -29 0
-40 -4 -40 -15 0 -8 -7 -15 -15 -15 -11 0 -15 11 -15 40 0 22 5 40 10 40 6 0
10 -7 10 -16z m1598 -30 c31 -6 28 -18 -10 -37 l-33 -16 28 0 c17 -1 27 -6 27
-16 0 -12 -9 -13 -47 -9 -66 9 -72 19 -27 43 l39 20 -32 1 c-30 0 -41 9 -28
22 5 5 33 2 83 -8z m-1503 -53 c3 -6 -11 -13 -32 -16 -21 -4 -46 -9 -55 -12
-12 -3 -18 1 -18 11 0 13 15 18 82 24 9 1 19 -2 23 -7z m15 -72 c0 -46 -79
-69 -100 -28 -12 21 -5 58 8 45 4 -4 8 -12 8 -17 1 -5 2 -13 3 -19 2 -15 37
-12 51 5 9 11 10 18 1 28 -6 8 -8 17 -4 20 10 10 33 -13 33 -34z m1490 12 c0
-33 -15 -71 -27 -71 -9 0 -13 6 -9 15 4 10 -6 17 -34 25 -45 12 -56 36 -12 27
15 -3 35 -9 45 -12 12 -5 17 -2 17 9 0 9 5 16 10 16 6 0 10 -4 10 -9z m-70
-72 c28 -17 50 -38 50 -47 0 -20 -20 -54 -20 -35 0 20 -42 53 -67 53 -25 0
-39 21 -29 45 7 20 8 20 66 -16z m-1392 -6 c-2 -10 -14 -20 -28 -22 -25 -3
-25 -3 -6 18 23 26 39 27 34 4z m-86 -21 c17 -7 17 -9 -1 -35 l-18 -27 -11 25
c-20 44 -13 54 30 37z m110 -42 c-4 -25 0 -32 24 -42 l29 -12 -32 -4 c-29 -3
-33 -7 -33 -33 0 -35 -17 -38 -26 -4 -5 21 -10 23 -37 18 l-32 -6 19 22 c16
18 17 25 7 47 -9 21 -9 25 1 21 7 -3 21 -8 30 -12 11 -4 21 0 30 14 18 29 25
26 20 -9z m1297 9 c14 -18 21 -20 39 -10 30 16 33 14 20 -14 -9 -21 -8 -29 8
-46 l19 -22 -32 6 c-27 5 -32 3 -37 -18 -9 -34 -26 -31 -26 4 0 26 -4 30 -32
33 l-33 4 29 12 c24 10 28 17 24 42 -5 36 -2 37 21 9z m-1219 -125 c0 -16 -45
-19 -55 -5 -3 5 2 17 11 26 12 12 19 13 30 4 8 -6 14 -18 14 -25z m1170 21
c16 -19 4 -35 -26 -35 -26 0 -32 18 -12 38 16 16 23 15 38 -3z"/>
<path d="M1501 1916 c-16 -20 -10 -50 11 -54 23 -4 34 36 16 55 -13 12 -16 12
-27 -1z"/>
<path d="M1946 1748 c-18 -25 -8 -42 17 -32 18 6 24 54 8 54 -6 0 -17 -10 -25
-22z"/>
<path d="M890 1630 c0 -24 32 -44 48 -28 16 16 -4 48 -28 48 -13 0 -20 -7 -20
-20z"/>
<path d="M725 1320 c-4 -7 -3 -16 3 -22 14 -14 57 -6 57 12 0 18 -50 26 -60
10z"/>
<path d="M1380 1735 c-118 -22 -229 -82 -322 -177 -43 -43 -78 -85 -78 -93 0
-11 11 -15 41 -15 28 0 39 -4 36 -12 -3 -9 -21 -12 -54 -10 -38 2 -52 -1 -57
-13 -4 -12 4 -15 40 -15 65 0 53 -24 -14 -28 -37 -2 -52 -7 -52 -18 0 -10 12
-14 41 -14 28 0 39 -4 37 -12 -5 -14 -9 -15 -63 -17 -25 -1 -35 -6 -35 -17 0
-14 7 -15 40 -10 31 5 40 3 40 -8 0 -10 -15 -17 -44 -21 -26 -4 -47 -13 -51
-22 -5 -13 2 -15 40 -10 35 5 45 4 45 -8 0 -8 -16 -17 -42 -22 -29 -6 -44 -14
-46 -27 -3 -14 1 -17 17 -12 12 3 30 9 42 12 16 5 20 2 17 -12 -2 -12 -17 -22
-41 -27 -26 -6 -37 -14 -37 -28 0 -17 3 -17 40 -4 37 13 40 13 40 -4 0 -12
-13 -22 -40 -30 -25 -7 -40 -18 -40 -27 0 -16 2 -16 68 2 38 11 26 -23 -13
-36 -40 -13 -47 -21 -36 -39 7 -10 15 -10 41 4 27 14 34 14 41 3 6 -9 -3 -19
-29 -33 -26 -14 -37 -25 -34 -38 3 -16 6 -16 38 3 31 20 54 20 54 1 0 -4 -16
-16 -35 -27 -38 -20 -39 -22 -27 -42 7 -10 14 -8 34 8 29 22 44 25 53 11 3 -6
-10 -20 -29 -33 -28 -20 -32 -27 -24 -42 9 -17 12 -16 39 10 23 22 32 25 42
15 9 -10 5 -18 -21 -39 -25 -21 -30 -30 -21 -39 9 -9 19 -7 41 12 16 14 34 25
39 25 17 0 9 -27 -16 -50 -19 -18 -22 -26 -13 -37 9 -11 17 -8 43 17 42 41 59
21 19 -21 -24 -25 -26 -31 -14 -39 18 -12 30 -13 30 -2 1 4 10 18 21 31 14 17
23 21 31 13 7 -7 4 -19 -11 -40 -11 -17 -21 -32 -21 -35 0 -16 155 -72 236
-85 84 -14 104 -14 188 0 81 13 236 69 236 85 0 3 -10 18 -21 35 -32 44 -9 60
28 19 21 -23 32 -29 43 -21 12 8 10 14 -14 39 -40 42 -23 62 19 21 26 -25 34
-28 43 -17 9 11 6 19 -13 37 -25 23 -33 50 -16 50 5 0 23 -11 39 -25 22 -19
32 -21 41 -12 9 9 4 18 -21 39 -26 21 -30 29 -21 39 10 10 19 7 42 -15 27 -26
30 -27 39 -10 8 15 4 22 -24 42 -19 13 -32 27 -29 33 9 14 24 11 53 -11 20
-16 27 -18 34 -8 12 20 11 22 -27 42 -19 11 -35 23 -35 27 0 18 22 19 50 2 27
-16 32 -16 40 -3 7 12 0 20 -30 35 -28 14 -37 24 -31 33 7 11 14 11 41 -3 26
-14 34 -14 41 -4 11 18 4 26 -36 39 -20 7 -35 18 -35 27 0 15 2 15 68 -3 16
-5 22 -2 22 9 0 10 -15 21 -40 28 -27 8 -40 18 -40 30 0 17 3 17 40 4 37 -13
40 -13 40 4 0 14 -11 22 -37 28 -24 5 -39 15 -41 27 -3 14 1 17 17 12 12 -3
30 -9 42 -12 16 -5 20 -2 17 12 -2 11 -15 21 -34 25 -68 13 -75 42 -9 32 38
-5 45 -3 40 10 -4 9 -25 18 -51 22 -29 4 -44 11 -44 21 0 11 9 13 40 8 33 -5
40 -4 40 10 0 11 -10 16 -35 17 -54 2 -58 3 -62 17 -3 8 8 12 36 12 29 0 41 4
41 14 0 11 -15 16 -52 18 -67 4 -79 28 -14 28 36 0 44 3 40 15 -5 12 -19 15
-57 13 -33 -2 -51 1 -54 10 -3 8 8 12 36 12 30 0 41 4 41 15 0 8 -35 50 -78
93 -95 97 -203 155 -327 177 -97 17 -138 17 -235 0z m133 -21 c20 -7 9 -44
-13 -44 -20 0 -34 37 -16 44 6 2 12 5 13 5 1 1 8 -2 16 -5z m-137 -43 c0 -19
-24 -23 -42 -6 -8 6 -8 13 0 21 15 16 42 6 42 -15z m291 -6 c-15 -16 -44 -13
-43 5 1 20 27 30 42 16 7 -7 8 -14 1 -21z m-22 -40 c219 -66 375 -274 375
-500 0 -252 -196 -478 -447 -516 -305 -45 -593 206 -593 516 0 260 199 482
465 519 46 6 148 -4 200 -19z m-408 -3 c0 -22 -18 -33 -34 -21 -16 14 -7 34
16 36 10 1 18 -5 18 -15z m565 3 c10 -13 -11 -35 -27 -29 -19 8 -15 45 5 41 8
-1 18 -6 22 -12z m-686 -90 c15 -13 -5 -33 -27 -28 -11 3 -15 12 -12 24 5 19
19 21 39 4z m807 -6 c6 -22 -19 -33 -37 -17 -9 9 -10 16 -2 23 15 17 34 14 39
-6z m-643 -919 c8 -5 12 -12 8 -15 -9 -9 -48 4 -48 16 0 12 21 11 40 -1z m480
1 c0 -10 -25 -21 -48 -21 -15 1 -14 3 2 15 22 17 46 20 46 6z m-391 -52 c-22
-14 -36 -11 -42 10 -6 25 22 33 42 13 12 -12 12 -15 0 -23z m304 10 c-6 -20
-20 -24 -42 -10 -12 8 -12 11 0 23 19 21 48 11 42 -13z m-159 -2 c17 -16 9
-37 -14 -37 -22 0 -31 20 -16 37 14 16 15 16 30 0z"/>
<path d="M1473 1582 c-26 -58 -108 -80 -156 -42 l-26 21 -42 -26 c-30 -20 -38
-30 -30 -38 15 -15 14 -70 -1 -85 -15 -15 -70 -16 -85 -1 -15 15 -63 -57 -63
-95 0 -17 -10 -40 -22 -54 -21 -21 -23 -33 -23 -130 0 -121 14 -175 69 -262
24 -38 43 -56 67 -64 21 -7 35 -19 37 -31 7 -34 22 -44 68 -43 48 1 74 -14 74
-43 0 -25 64 -41 160 -41 96 0 160 16 160 41 0 29 26 44 74 43 46 -1 61 9 68
43 2 12 16 24 37 31 24 8 43 26 67 64 55 87 69 141 69 262 0 97 -2 109 -22
130 -13 14 -23 37 -23 54 0 38 -48 110 -63 95 -15 -15 -70 -14 -85 1 -15 15
-16 70 -1 85 8 8 0 18 -30 38 l-42 26 -26 -21 c-48 -38 -130 -16 -156 42 -6
16 -19 28 -27 28 -8 0 -21 -12 -27 -28z m-176 -106 c-4 -9 -11 -16 -17 -16
-11 0 -14 33 -3 44 11 10 26 -11 20 -28z m213 25 c0 -4 29 -11 65 -14 68 -7
109 -22 100 -37 -3 -5 3 -13 12 -19 16 -9 16 -12 3 -21 -36 -24 -91 0 -57 25
9 7 14 15 10 18 -10 11 -113 8 -113 -3 0 -5 -13 -10 -30 -10 -16 0 -30 5 -30
10 0 11 -103 14 -113 3 -4 -3 1 -11 10 -18 34 -25 -21 -49 -57 -25 -13 9 -13
12 3 21 9 6 15 14 12 19 -9 15 32 30 100 37 36 3 65 10 65 14 0 5 5 9 10 9 6
0 10 -4 10 -9z m218 -19 c2 -12 -1 -22 -7 -22 -13 0 -32 35 -24 44 12 12 28 0
31 -22z m-562 -137 c-25 -19 -46 -19 -46 0 0 10 10 15 33 15 30 -1 31 -1 13
-15z m611 -162 c-3 -108 -10 -192 -17 -213 -33 -90 -109 -161 -217 -203 -40
-16 -46 -16 -85 0 -109 42 -185 113 -218 203 -7 21 -14 105 -17 213 l-5 177
282 0 282 0 -5 -177z m123 104 c0 -31 -60 -52 -75 -26 -11 16 1 22 23 10 17
-9 22 -8 27 9 7 22 25 27 25 7z m-765 -17 c5 -17 10 -18 27 -9 22 12 34 6 23
-10 -15 -26 -75 -5 -75 26 0 20 18 15 25 -7z m770 -39 c-8 -26 -47 -28 -66 -5
-12 15 -10 16 17 10 25 -6 33 -3 38 10 9 24 19 10 11 -15z m-755 -6 c16 5 21
3 18 -6 -3 -8 -15 -16 -28 -17 -24 -4 -40 12 -40 38 1 12 4 11 15 -3 9 -13 20
-17 35 -12z m764 -46 c-21 -23 -37 -24 -54 -4 -17 20 -5 32 15 15 13 -11 18
-10 32 10 11 15 18 19 21 11 2 -7 -4 -21 -14 -32z m-779 1 c9 7 18 10 22 7 7
-8 -16 -37 -30 -37 -17 0 -47 32 -47 49 1 12 5 10 20 -8 17 -19 23 -21 35 -11z
m800 -17 c-4 -10 -7 -29 -6 -42 0 -13 -9 -33 -22 -45 l-23 -22 -17 23 c-24 31
-22 50 3 28 11 -10 21 -16 23 -14 1 2 9 12 17 22 12 17 11 18 -11 12 -17 -4
-30 -1 -39 10 -17 20 -5 32 15 15 14 -11 19 -10 38 8 26 27 32 28 22 5z m-800
-23 c20 17 32 5 15 -15 -18 -22 -46 -19 -64 7 -24 34 -19 44 9 18 20 -19 27
-21 40 -10z m8 -43 c23 23 23 0 0 -30 l-17 -23 -23 22 c-13 12 -23 29 -23 39
0 17 2 17 23 -3 22 -20 24 -21 40 -5z m725 -43 c7 -13 13 -14 30 -5 25 14 32
14 32 1 0 -5 -13 -16 -30 -25 -16 -9 -30 -20 -30 -26 0 -6 6 -6 19 1 24 13 31
13 31 0 0 -5 -18 -18 -40 -29 -22 -11 -37 -15 -34 -9 4 6 1 14 -6 18 -6 4 -10
18 -8 31 l5 24 10 -24 c8 -19 11 -21 16 -8 3 8 -1 21 -9 27 -16 14 -19 40 -4
40 5 0 13 -7 18 -16z m-698 -8 c0 -7 -6 -19 -14 -26 -8 -6 -12 -19 -9 -27 5
-13 8 -11 16 8 l10 24 5 -24 c2 -13 -2 -27 -8 -31 -7 -4 -9 -13 -5 -19 5 -9
11 -7 21 6 12 16 14 14 11 -24 -1 -26 -6 -38 -11 -32 -6 5 -20 9 -31 9 -12 0
-30 10 -41 22 -20 23 -20 23 31 2 8 -3 15 -1 15 5 0 6 -16 17 -35 25 -19 8
-35 20 -35 25 0 14 6 14 31 1 13 -7 19 -7 19 -1 0 6 -13 17 -30 26 -16 9 -30
20 -30 25 0 13 7 13 32 -1 17 -9 23 -8 30 5 11 20 28 21 28 2z m705 -98 c36
17 41 15 20 -8 -10 -11 -28 -20 -40 -20 -11 0 -25 -4 -30 -9 -6 -6 -11 6 -13
32 l-2 42 19 -25 c17 -21 22 -23 46 -12z m-75 -33 c8 -21 14 -24 42 -18 30 6
32 5 19 -10 -7 -9 -25 -17 -40 -17 -15 0 -31 -4 -36 -9 -9 -9 -11 15 -6 67 2
19 11 14 21 -13z m-566 -35 c1 -24 -2 -36 -8 -30 -6 6 -22 10 -37 10 -15 0
-33 8 -40 17 -13 15 -11 16 19 10 29 -6 34 -4 43 20 13 34 22 23 23 -27z m528
-7 c3 -25 6 -28 38 -25 30 4 33 2 21 -12 -30 -36 -96 -1 -84 45 8 28 21 23 25
-8z m-496 -37 c-17 -27 -58 -32 -76 -11 -13 15 -11 17 20 13 32 -3 35 -1 38
27 4 28 5 29 18 11 12 -17 12 -23 0 -40z m469 -36 c19 -21 18 -22 -37 -34 -15
-4 -43 -21 -61 -40 -26 -25 -45 -34 -85 -40 -84 -11 -153 2 -184 36 -14 15
-43 35 -64 44 -33 14 -35 17 -21 31 14 14 18 14 44 -5 47 -34 140 -72 173 -72
36 0 168 58 189 83 17 22 24 21 46 -3z"/>
<path d="M1280 1293 c0 -3 7 -14 16 -24 16 -18 17 -19 29 -85 11 -61 45 -117
82 -134 31 -14 43 -30 24 -30 -5 0 -17 -8 -27 -17 -21 -21 -84 -25 -91 -6 -6
17 -36 17 -30 1 2 -7 8 -13 14 -13 16 0 63 -53 63 -71 0 -20 20 -13 34 10 8
14 8 20 -1 23 -22 8 -14 23 13 23 14 0 34 5 45 10 25 14 25 -4 0 -37 -16 -20
-18 -29 -9 -48 6 -14 15 -22 19 -19 5 3 9 0 9 -6 0 -6 4 -9 9 -6 5 4 12 0 15
-6 5 -11 7 -11 12 0 3 6 10 10 15 6 5 -3 9 0 9 6 0 6 4 9 9 6 4 -3 13 5 19 19
9 19 7 28 -10 50 -11 14 -19 28 -16 30 2 2 22 1 45 -2 30 -4 44 -11 49 -25 5
-18 7 -18 30 -3 13 8 24 12 24 8 0 -5 5 -1 10 7 7 11 5 18 -6 27 -10 7 -11 13
-5 18 6 3 11 1 11 -4 0 -19 17 -12 23 9 3 11 0 20 -5 20 -7 0 -6 5 1 14 9 11
8 15 -5 20 -19 7 -17 8 -33 -21 -6 -13 -19 -23 -28 -23 -12 0 -13 -3 -3 -15
21 -26 -17 -32 -41 -6 -11 11 -24 21 -29 21 -20 0 -9 18 15 24 28 7 78 68 82
100 6 47 27 112 41 129 27 31 4 30 -48 -3 -58 -37 -74 -60 -66 -98 3 -15 2
-33 -3 -41 -16 -24 -36 -5 -46 45 -11 47 -12 49 -48 52 -29 3 -37 0 -37 -13 0
-9 5 -13 10 -10 21 13 22 -26 1 -41 -11 -8 -21 -22 -21 -30 0 -19 -36 -18 -44
2 -3 8 -3 27 0 40 8 33 -15 66 -70 98 -47 27 -56 30 -56 19z m258 -254 c-31
-59 -49 -60 -76 -4 l-22 45 33 30 32 29 28 -28 28 -27 -23 -45z"/>
<path d="M1490 1291 c0 -4 -11 -7 -25 -6 -16 2 -25 -2 -25 -11 0 -10 15 -14
60 -14 45 0 60 4 60 14 0 9 -9 13 -25 11 -14 -1 -25 2 -25 6 0 5 -4 9 -10 9
-5 0 -10 -4 -10 -9z"/>
<path d="M900 428 l0 -178 600 0 600 0 0 178 0 177 -95 -2 c-88 -1 -100 -4
-143 -32 -106 -68 -247 -111 -362 -111 -113 0 -276 50 -363 112 -27 19 -49 24
-135 28 l-102 5 0 -177z m236 100 c98 -60 251 -107 348 -108 22 0 37 -3 34 -6
-3 -3 -61 -5 -129 -5 -145 1 -159 -6 -159 -76 0 -42 -1 -43 -33 -43 l-33 0 4
70 c4 67 3 70 -27 101 -27 26 -37 30 -64 25 -18 -4 -41 -6 -52 -6 -11 0 -35 1
-52 1 -31 0 -33 2 -33 39 0 45 10 50 86 46 37 -2 66 -12 110 -38z m908 36 c12
-4 16 -20 16 -55 l0 -49 -35 17 c-30 14 -41 15 -69 5 -24 -9 -41 -9 -65 -1
-17 6 -42 8 -55 5 -31 -8 -62 -54 -47 -69 16 -16 14 -52 -4 -67 -10 -8 -15 -9
-15 -2 0 6 -11 23 -25 37 -24 23 -33 25 -108 25 -85 0 -91 13 -12 26 68 11
188 55 235 87 25 16 56 33 70 38 31 9 93 11 114 3z m-1034 -184 c0 -64 -3 -80
-15 -80 -12 0 -15 13 -15 60 0 47 -3 60 -15 60 -8 0 -15 6 -15 14 0 13 9 17
53 25 4 0 7 -35 7 -79z m110 60 c17 -17 18 -24 9 -41 -8 -15 -8 -24 0 -32 32
-32 -12 -76 -63 -63 -27 7 -44 42 -28 58 6 6 8 24 5 41 -5 22 -1 33 12 44 26
18 42 16 65 -7z m768 4 c30 -21 28 -42 -10 -81 l-32 -33 32 0 c22 0 32 -5 32
-15 0 -11 -12 -15 -50 -15 -58 0 -64 13 -24 51 37 35 49 60 33 70 -7 4 -19 3
-26 -2 -12 -11 -33 -4 -33 10 0 7 36 28 50 30 3 1 16 -6 28 -15z m132 -4 c43
-43 20 -140 -33 -140 -35 0 -57 29 -57 77 0 45 25 83 55 83 8 0 24 -9 35 -20z
m-710 -70 c0 -5 -8 -10 -17 -10 -15 0 -14 -2 3 -15 17 -13 17 -14 2 -15 -10 0
-18 -7 -18 -15 0 -8 -4 -15 -10 -15 -5 0 -10 18 -10 40 0 36 3 40 25 40 14 0
25 -4 25 -10z m70 -10 c15 -28 -4 -62 -33 -58 -22 3 -34 35 -23 64 8 21 44 17
56 -6z m34 -10 c-5 -23 -3 -30 10 -30 11 0 16 9 16 30 0 17 5 30 10 30 6 0 9
-12 6 -27 -2 -16 -5 -34 -5 -41 -1 -8 -10 -12 -23 -10 -19 2 -24 10 -26 41 -2
21 1 37 7 37 6 0 8 -12 5 -30z m84 8 l11 -23 0 23 c2 40 21 23 21 -18 0 -45
-10 -50 -34 -17 l-17 22 5 -22 c2 -13 0 -23 -5 -23 -5 0 -9 18 -9 40 0 45 11
52 28 18z m90 10 c17 -17 15 -55 -4 -62 -35 -13 -44 -7 -44 34 0 32 4 40 18
40 10 0 23 -5 30 -12z m72 2 c0 -5 -8 -11 -17 -11 -17 -1 -17 -2 0 -6 9 -2 17
-9 17 -14 0 -5 -8 -10 -17 -10 -17 -1 -17 -2 0 -6 26 -7 21 -23 -8 -23 -22 0
-25 4 -25 40 0 36 3 40 25 40 14 0 25 -4 25 -10z m74 -12 c15 -25 -3 -52 -38
-56 -24 -3 -26 -1 -26 38 0 39 2 41 26 38 15 -2 32 -11 38 -20z"/>
<path d="M1070 410 c0 -11 7 -20 15 -20 8 0 15 9 15 20 0 11 -7 20 -15 20 -8
0 -15 -9 -15 -20z"/>
<path d="M1071 361 c-18 -12 -5 -31 20 -31 14 0 19 6 17 17 -4 20 -18 26 -37
14z"/>
<path d="M1971 416 c-7 -8 -11 -30 -9 -48 2 -25 8 -33 23 -33 16 0 21 8 23 36
4 42 -18 68 -37 45z"/>
<path d="M1340 340 c0 -11 7 -20 15 -20 8 0 15 9 15 20 0 11 -7 20 -15 20 -8
0 -15 -9 -15 -20z"/>
</g>
</svg>
