<?xml version="1.0" standalone="no"?>
<!DOCTYPE svg PUBLIC "-//W3C//DTD SVG 20010904//EN"
 "http://www.w3.org/TR/2001/REC-SVG-20010904/DTD/svg10.dtd">
<svg version="1.0" xmlns="http://www.w3.org/2000/svg"
 width="300.000000pt" height="300.000000pt" viewBox="0 0 300.000000 300.000000"
 preserveAspectRatio="xMidYMid meet">
<metadata>
Created by potrace 1.10, written by Peter Selinger 2001-2011
</metadata>
<g transform="translate(0.000000,300.000000) scale(0.100000,-0.100000)"
fill="#39FF14" stroke="none">
<path d="M870 2420 l0 -50 -95 0 -95 0 0 -51 0 -51 -50 4 -50 3 0 -47 0 -48
-50 0 -50 0 0 -34 c0 -57 8 -66 56 -66 l44 0 0 -50 0 -50 -44 0 -44 0 -7 -95
-7 -95 -47 0 -46 0 3 95 3 95 45 0 44 0 0 50 0 50 -45 0 -45 0 0 -51 0 -51
-50 4 -50 3 0 -192 0 -193 -50 0 -50 0 0 -50 0 -50 -45 0 -45 0 0 -50 0 -50
45 0 45 0 0 50 0 50 50 0 50 0 0 50 0 50 50 0 50 0 0 -50 0 -50 45 0 45 0 0
-50 0 -50 -45 0 -45 0 0 -45 0 -45 48 0 47 0 -3 45 -4 45 51 0 51 0 0 50 0 50
-50 0 -50 0 0 50 0 50 -45 0 -45 0 0 40 c0 22 0 43 0 48 0 4 21 5 45 4 l45 -4
0 51 0 51 145 0 145 0 0 50 0 50 100 0 100 0 0 -50 0 -50 50 0 50 0 0 -95 0
-95 430 0 430 0 0 95 0 95 50 0 50 0 0 50 0 50 100 0 100 0 0 -50 0 -50 145 0
145 0 0 -51 0 -51 45 4 c24 1 45 0 45 -4 0 -5 0 -26 0 -48 l0 -40 -45 0 -45 0
0 -50 0 -50 -50 0 -50 0 0 -51 0 -50 48 3 47 3 3 48 3 47 45 0 44 0 0 50 0 50
50 0 50 0 0 -50 0 -50 50 0 50 0 0 -50 0 -50 45 0 45 0 0 50 0 50 -45 0 -45 0
0 50 0 50 -50 0 -50 0 0 193 0 192 -50 -3 -50 -4 0 51 0 51 -45 0 -45 0 0 -50
0 -50 44 0 45 0 3 -95 3 -95 -47 0 -48 0 0 49 0 49 -142 1 c-78 1 -143 3 -145
5 -2 2 -4 22 -5 45 l0 41 -99 0 -99 0 0 -44 0 -45 -47 -3 c-44 -3 -48 -5 -45
-27 2 -13 1 -34 -2 -47 -6 -21 -12 -24 -51 -24 l-45 0 0 -50 0 -50 -340 0
-340 0 0 50 0 50 -44 0 c-49 0 -56 9 -56 66 0 28 -4 35 -17 33 -10 -1 -30 -1
-45 0 -26 1 -28 4 -28 46 l0 45 -97 0 -98 0 0 -40 c-1 -21 -4 -42 -8 -46 -8
-8 -199 -13 -239 -6 -25 4 -28 8 -26 42 1 37 2 38 41 38 42 1 57 13 57 49 0
12 8 24 18 26 16 4 16 5 0 6 -36 2 -17 18 24 19 23 1 43 3 44 5 2 1 5 21 7 42
l4 40 84 3 c46 2 89 8 96 14 7 5 14 28 16 51 3 37 5 39 12 18 l8 -25 9 23 c5
16 13 21 24 17 9 -3 51 -6 94 -6 66 0 79 -3 83 -17 3 -13 5 -12 6 5 0 13 5 21
11 17 5 -3 7 -11 5 -18 -3 -7 -1 -25 3 -42 8 -30 8 -30 98 -35 70 -4 89 -8 90
-20 1 -8 2 -27 2 -42 2 -26 5 -28 47 -28 44 0 61 -14 28 -23 -17 -4 -17 -5 0
-6 15 -1 17 -15 18 -148 0 -82 4 -157 9 -168 5 -12 9 54 9 168 l1 188 103 -3
102 -3 1 45 1 45 -4 -42 -4 -43 -50 0 -49 0 0 50 0 50 50 0 51 0 -6 33 c-3 17
-2 37 3 44 9 15 102 25 154 17 37 -6 38 -7 40 -53 l1 -46 4 42 4 42 137 4 137
3 -142 2 -143 2 0 50 0 50 145 0 145 0 0 -50 0 -50 59 6 c32 4 75 4 95 0 35
-7 36 -8 36 -51 l0 -45 50 0 50 0 0 -50 0 -50 -49 0 -50 0 -4 48 -3 47 -2 -48
c-2 -60 3 -62 116 -51 l87 9 3 48 3 47 -50 0 -51 0 0 45 0 45 -50 0 -50 0 0
50 0 50 -95 0 -95 0 0 50 0 50 -145 0 -145 0 0 -50 0 -50 -99 0 -98 0 5 -51 5
-51 -52 3 -51 4 0 -47 0 -48 -50 0 -50 0 0 48 0 47 -51 -4 -51 -3 3 51 4 51
-97 0 -98 0 0 50 0 50 -145 0 -145 0 0 -50z m193 3 c-23 -2 -64 -2 -90 0 -26
2 -7 3 42 3 50 0 71 -1 48 -3z m960 0 c-24 -2 -62 -2 -85 0 -24 2 -5 4 42 4
47 0 66 -2 43 -4z m-861 -100 l3 -48 62 3 c110 7 144 -13 129 -73 -6 -22 -11
-24 -101 -27 l-95 -3 0 48 0 47 -145 0 -145 0 0 -47 0 -48 -92 0 -93 0 -3 -47
-3 -48 -50 0 -49 0 0 50 0 50 50 0 50 0 0 45 c0 43 1 44 36 51 20 4 63 4 95 0
l59 -6 0 50 0 50 144 0 145 0 3 -47z m618 3 c0 -14 -48 -16 -59 -3 -7 9 0 12
25 12 19 0 34 -5 34 -9z m-330 -196 l0 -50 -50 0 -50 0 0 50 0 50 50 0 50 0 0
-50z m-505 -185 c0 -5 -33 -11 -72 -13 -59 -2 -73 0 -73 12 0 8 8 16 17 18 31
6 128 -7 128 -17z m1243 -3 c2 -8 -15 -12 -57 -12 -57 0 -86 12 -59 24 23 9
112 0 116 -12z m476 -68 c8 -22 8 -194 -1 -194 -4 0 -17 11 -28 24 -11 13 -29
25 -39 27 -26 5 -33 29 -8 29 32 0 54 34 54 84 0 46 10 60 22 30z m-1938 -17
c18 -18 -16 -27 -97 -27 -67 0 -89 3 -89 13 0 8 2 16 4 18 7 6 176 3 182 -4z
m1723 -3 c65 -13 28 -25 -71 -22 -70 2 -103 7 -106 16 -4 13 118 18 177 6z
m-2114 -45 c-4 -6 -1 -9 6 -7 8 1 27 -9 42 -24 l28 -26 -36 -39 c-19 -21 -36
-45 -37 -53 -1 -8 -4 21 -8 65 -6 77 -5 95 6 95 3 0 2 -5 -1 -11z m806 -78 c4
-18 12 -38 18 -44 7 -7 65 -13 149 -15 82 -3 143 -9 151 -16 12 -8 13 -8 7 2
-4 7 -2 12 8 12 16 0 31 -18 22 -27 -3 -3 -87 -6 -187 -7 -204 -1 -209 0 -209
64 0 74 28 95 41 31z m756 -29 c1 -28 -3 -54 -8 -58 -13 -8 -375 -8 -371 0 1
3 2 10 2 14 0 5 26 9 58 9 254 -1 284 5 288 59 3 38 2 36 17 32 7 -3 13 -25
14 -56z"/>
<path d="M1713 2163 c20 -2 54 -2 75 0 20 2 3 4 -38 4 -41 0 -58 -2 -37 -4z"/>
<path d="M2168 2163 c18 -2 45 -2 60 0 15 2 0 4 -33 4 -33 0 -45 -2 -27 -4z"/>
<path d="M780 2073 c0 -5 43 -8 95 -8 52 0 95 3 95 8 0 4 -43 7 -95 7 -52 0
-95 -3 -95 -7z"/>
<path d="M2030 2058 c1 -21 2 -21 11 -5 8 14 24 17 89 17 66 0 79 -3 83 -17 4
-14 5 -12 6 5 1 21 -2 22 -94 22 -92 0 -95 -1 -95 -22z"/>
<path d="M1550 1890 c0 -95 2 -171 5 -169 6 7 8 330 1 336 -3 4 -6 -72 -6
-167z"/>
<path d="M2340 1980 l-75 -6 70 -4 c64 -5 70 -7 76 -30 6 -21 7 -20 8 13 1 20
0 36 -1 35 -2 -1 -37 -4 -78 -8z"/>
<path d="M1740 1763 c1 -25 2 -26 11 -10 6 10 20 22 32 27 19 8 18 9 -10 9
-30 1 -33 -2 -33 -26z"/>
<path d="M970 1500 l0 -100 -50 0 -50 0 0 -192 0 -193 50 3 50 4 0 -101 0
-101 45 0 45 0 1 43 c0 23 1 67 2 97 l1 55 -47 3 -47 3 0 190 0 189 48 0 47 0
-2 53 c-1 28 -2 73 -3 100 l0 47 -45 0 -45 0 0 -100z m-41 -290 c1 -87 -2
-129 -9 -125 -6 4 -10 59 -10 136 0 72 4 128 9 125 4 -3 9 -64 10 -136z"/>
<path d="M1940 1553 c-1 -27 -2 -72 -4 -100 l-3 -53 48 0 49 0 0 -190 0 -190
-48 0 -47 0 1 -97 2 -98 46 -3 46 -3 0 101 0 102 50 -4 50 -3 0 193 0 192 -50
0 -50 0 0 100 0 100 -45 0 -45 0 0 -47z m52 -62 c-2 -17 -8 -28 -13 -25 -8 4
-7 34 0 62 1 2 5 1 9 -2 5 -3 7 -19 4 -35z m96 -281 c1 -47 -2 -80 -8 -80 -11
0 -14 143 -3 153 3 4 7 7 8 7 1 0 2 -36 3 -80z"/>
<path d="M1112 1477 c29 -23 27 -36 -7 -55 -18 -10 -16 -11 18 -12 l37 0 0 45
0 45 -37 0 -38 0 27 -23z"/>
<path d="M1840 1455 c0 -44 1 -45 33 -45 l32 0 -24 19 -24 19 28 26 28 26 -37
0 -36 0 0 -45z"/>
<path d="M197 1393 c-4 -3 -7 -24 -7 -45 l0 -38 50 0 50 0 0 -50 0 -50 51 0
50 0 -3 48 -3 47 -47 3 -48 3 0 45 0 44 -43 0 c-24 0 -47 -3 -50 -7z"/>
<path d="M1160 1305 l0 -95 50 0 50 0 0 95 0 95 -50 0 -50 0 0 -95z m58 0 c2
-19 -2 -35 -8 -35 -11 0 -14 53 -3 63 9 10 9 11 11 -28z"/>
<path d="M1740 1305 l0 -95 50 0 50 0 0 95 0 95 -50 0 -50 0 0 -95z"/>
<path d="M2518 1355 l-3 -45 47 0 48 0 0 45 0 45 -44 0 -44 0 -4 -45z"/>
<path d="M2710 1356 l0 -45 -47 -3 -48 -3 -3 -47 -3 -48 50 0 51 0 0 50 0 50
51 0 50 0 -3 43 -3 42 -47 3 -48 3 0 -45z"/>
<path d="M1040 1355 c-5 -14 -20 -30 -32 -35 -20 -8 -18 -9 15 -9 36 -1 37 0
37 34 0 41 -7 45 -20 10z"/>
<path d="M1940 1348 c0 -37 1 -38 38 -37 31 0 34 2 15 9 -12 5 -29 22 -37 37
l-15 28 -1 -37z"/>
<path d="M1450 1260 l0 -50 -50 0 -50 0 0 -51 0 -51 50 4 50 3 0 -47 0 -46 50
-4 50 -3 0 47 0 47 -47 3 -48 3 -3 48 -3 47 50 0 50 0 3 -47 3 -48 47 -3 47
-3 -1 50 0 51 -49 0 -49 0 0 50 0 50 -50 0 -50 0 0 -50z"/>
<path d="M1160 970 l0 -50 -37 0 c-37 -1 -37 -1 -14 -14 13 -7 30 -26 37 -42
l12 -29 1 43 1 42 50 0 50 0 0 -51 0 -51 48 3 47 3 0 -47 0 -47 145 0 145 0 0
47 0 47 48 -3 47 -3 0 51 0 51 50 0 50 0 1 -42 c1 -41 2 -42 12 -16 5 14 22
32 36 39 l26 14 -37 3 -38 3 0 50 0 49 -50 0 -50 0 0 -50 0 -50 -240 0 -240 0
0 50 0 50 -50 0 -50 0 0 -50z m531 -95 c0 -5 -7 -12 -16 -13 -27 -6 -54 -34
-66 -69 l-11 -33 -98 0 -98 0 -16 41 c-12 28 -25 43 -46 51 -30 10 -36 19 -23
32 11 11 373 2 374 -9z"/>
<path d="M1070 798 c0 -13 -3 -33 -6 -45 -6 -22 -3 -23 45 -23 l51 0 0 -50 0
-50 50 0 50 0 0 -50 0 -50 240 0 240 0 0 50 0 50 50 0 50 0 0 50 0 50 51 0
c43 0 50 3 45 16 -3 9 -6 29 -6 45 0 28 -2 29 -45 29 l-45 0 0 -45 0 -45 -50
0 -50 0 0 -50 0 -50 -240 0 -240 0 0 50 0 50 -50 0 -50 0 0 45 0 45 -45 0
c-40 0 -45 -3 -45 -22z m615 -218 c-8 -12 -361 -14 -369 -2 -3 5 81 10 185 11
131 1 189 -1 184 -9z"/>
<path d="M1190 815 c0 -3 11 -10 25 -15 14 -5 25 -16 25 -25 0 -8 5 -15 11
-15 6 0 9 12 7 28 -2 22 -8 28 -35 30 -18 2 -33 1 -33 -3z"/>
<path d="M1747 813 c-11 -10 -8 -51 3 -58 6 -3 10 2 10 13 0 11 13 25 33 35
l32 16 -36 0 c-20 1 -39 -2 -42 -6z"/>
<path d="M1295 710 c3 -5 12 -10 19 -10 7 0 18 -10 24 -22 10 -22 11 -21 11
10 1 29 -2 32 -30 32 -17 0 -28 -4 -24 -10z"/>
<path d="M1651 688 c0 -18 3 -27 6 -20 3 8 19 22 37 33 l31 19 -37 0 c-36 0
-38 -1 -37 -32z"/>
</g>
</svg>
