<?xml version="1.0" standalone="no"?>
<!DOCTYPE svg PUBLIC "-//W3C//DTD SVG 20010904//EN"
 "http://www.w3.org/TR/2001/REC-SVG-20010904/DTD/svg10.dtd">
<svg version="1.0" xmlns="http://www.w3.org/2000/svg"
 width="300.000000pt" height="330.000000pt" viewBox="0 0 300.000000 330.000000"
 preserveAspectRatio="xMidYMid meet">
<metadata>
Created by potrace 1.10, written by Peter Selinger 2001-2011
</metadata>
<g transform="translate(0.000000,330.000000) scale(0.100000,-0.100000)"
fill="#39FF14" stroke="none">
<path d="M1250 3148 l0 -63 -122 3 -123 3 4 -125 3 -126 -66 0 -66 0 0 -315 0
-315 -60 0 -60 0 0 -185 0 -185 -66 0 -66 0 4 -65 4 -65 -63 0 -63 0 0 -62 0
-63 -60 3 -60 4 0 -66 0 -66 -65 0 -65 0 0 -185 0 -185 66 0 66 0 -4 125 -3
125 63 0 62 0 0 63 0 62 62 -3 63 -3 -3 -500 -3 -499 66 0 65 0 0 -185 0 -185
245 0 245 0 0 60 0 60 -60 0 c-57 0 -60 1 -60 24 0 30 -18 44 -26 21 -8 -19
26 -69 47 -71 8 -1 26 -2 42 -3 23 -1 27 -5 27 -30 0 -37 -2 -37 -242 -33
l-186 3 -4 92 c-3 51 -8 100 -12 110 -8 16 4 17 173 17 l181 0 0 -29 c0 -29 1
-29 60 -33 l60 -3 0 63 0 62 -60 0 c-60 0 -60 0 -60 30 l0 30 -185 0 -185 0 0
500 0 500 60 0 60 0 0 190 0 190 63 0 63 0 -4 125 -4 125 66 0 66 0 0 60 0 60
-65 0 -65 0 2 313 3 312 188 3 187 2 0 -127 0 -128 120 0 120 0 0 128 0 127
188 -2 187 -3 3 -312 2 -313 -65 0 -65 0 0 -60 0 -60 66 0 66 0 -4 -125 -4
-125 63 0 63 0 0 -190 0 -190 60 0 60 0 0 -500 0 -500 -185 0 -185 0 0 -30 c0
-30 0 -30 -60 -30 l-60 0 0 -66 c0 -56 2 -65 16 -60 9 3 36 6 60 6 42 0 44 1
44 30 l0 30 181 0 180 0 -7 -22 c-14 -39 -8 -97 11 -118 12 -13 31 -20 57 -20
21 0 38 -3 39 -7 0 -5 2 -16 4 -25 2 -10 -2 -21 -8 -25 -14 -9 -410 -4 -419 5
-4 4 -8 35 -10 70 -5 95 -23 81 -26 -20 l-3 -88 248 0 248 0 0 60 0 60 -62 0
-63 0 0 125 0 125 65 0 66 0 -3 499 -3 500 63 3 62 3 0 -62 0 -63 63 0 62 0
-3 -125 -4 -125 66 0 66 0 0 185 0 185 -65 0 -65 0 0 66 0 66 -60 -4 -60 -3 0
63 0 62 -64 0 -64 0 6 65 5 65 -67 0 -66 0 0 185 0 185 -60 0 -60 0 0 315 0
315 -66 0 -66 0 3 126 4 125 -123 -3 -122 -3 0 63 0 62 -250 0 -250 0 0 -62z
m448 18 c7 -4 12 -22 12 -41 0 -57 35 -75 141 -75 103 0 109 -5 109 -92 0 -84
3 -83 -175 -84 -198 -1 -195 1 -195 -131 0 -127 -3 -132 -90 -132 -87 0 -90 5
-90 127 0 135 2 133 -194 136 -123 2 -160 6 -167 17 -13 21 -11 133 3 147 8 8
45 12 102 12 78 0 93 3 113 22 15 14 23 33 23 55 0 25 5 36 22 42 26 9 370 7
386 -3z m384 -666 c3 -257 4 -280 22 -299 11 -12 31 -21 45 -21 51 0 53 -6 56
-173 3 -185 11 -207 74 -207 41 0 51 -11 51 -56 0 -33 31 -61 78 -69 37 -6 40
-9 45 -47 7 -51 24 -68 76 -75 22 -3 41 -6 41 -7 1 0 3 -19 6 -41 7 -50 23
-67 77 -80 l42 -11 0 -139 c0 -133 -1 -140 -20 -140 -18 0 -20 8 -25 103 -5
94 -7 106 -28 123 -13 10 -33 17 -45 15 -30 -5 -47 11 -47 44 0 15 -9 39 -21
54 -18 23 -28 26 -78 26 -47 0 -61 -4 -79 -23 -22 -23 -22 -24 -22 -489 0
-394 -3 -468 -15 -478 -8 -6 -19 -9 -25 -5 -7 4 -10 160 -10 476 l0 470 -25
24 c-15 16 -36 25 -54 25 -16 0 -33 5 -37 12 -4 6 -8 81 -10 166 -3 173 -9
189 -74 197 -18 3 -37 10 -42 17 -4 7 -8 52 -8 99 0 113 -15 132 -107 138 -7
1 -13 9 -13 20 0 15 10 20 45 26 76 11 77 13 76 326 -1 277 3 314 35 288 10
-8 14 -73 16 -289z m-1119 273 c3 -10 6 -139 6 -288 2 -298 3 -300 67 -311 45
-7 54 -12 54 -29 0 -8 -6 -15 -12 -16 -93 -5 -108 -23 -108 -138 0 -47 -4 -92
-9 -100 -5 -7 -24 -15 -42 -17 -66 -8 -72 -24 -73 -196 -1 -84 -5 -159 -9
-165 -5 -7 -23 -13 -42 -13 -24 0 -39 -7 -54 -26 -21 -26 -21 -36 -21 -495 0
-479 0 -485 -37 -472 -9 4 -12 123 -12 476 -1 468 -1 471 -23 494 -18 19 -32
23 -78 23 -67 0 -89 -17 -97 -78 -6 -41 -19 -52 -69 -52 -41 0 -53 -29 -56
-135 -3 -92 -5 -100 -23 -100 -19 0 -20 7 -20 140 l0 140 41 10 c55 13 74 31
74 69 0 39 15 56 50 56 41 0 69 26 76 71 7 43 12 48 51 55 41 8 62 23 67 47
16 80 15 77 51 77 42 0 75 29 76 68 1 15 2 86 4 157 2 72 4 133 4 137 1 4 18
10 39 14 20 3 47 16 60 27 22 20 22 23 22 297 0 152 3 280 7 283 12 13 32 7
36 -10z m130 -2361 c8 -7 17 -22 20 -33 5 -19 1 -20 -144 -18 -139 2 -151 4
-165 23 -13 19 -12 22 2 33 22 16 266 12 287 -5z m1095 10 c21 -3 13 -42 -10
-51 -13 -5 -84 -8 -159 -8 -129 0 -136 1 -131 19 9 36 34 43 163 42 68 0 130
-1 137 -2z m-980 -86 c-2 -11 -9 -20 -16 -18 -6 1 -18 3 -24 5 -21 4 -27 31
-9 38 28 10 52 -2 49 -25z m655 17 c-7 -3 -13 -11 -13 -18 0 -13 -45 -27 -55
-17 -3 3 -5 13 -5 23 0 13 9 19 38 21 38 3 56 -1 35 -9z"/>
<path d="M1130 2650 l0 -60 60 0 60 0 0 60 0 60 -60 0 -60 0 0 -60z m80 0 c0
-13 -7 -20 -20 -20 -13 0 -20 7 -20 20 0 13 7 20 20 20 13 0 20 -7 20 -20z"/>
<path d="M1750 2650 l0 -60 60 0 60 0 0 60 0 60 -60 0 -60 0 0 -60z m78 -3 c2
-12 -3 -17 -17 -17 -15 0 -21 6 -21 21 0 25 33 22 38 -4z"/>
<path d="M1380 2515 l0 -55 120 0 120 0 0 55 c0 64 -15 73 -25 15 l-7 -40 -88
0 -88 0 -7 40 c-10 58 -25 49 -25 -15z"/>
<path d="M1384 465 l0 -65 121 0 121 0 -1 63 -1 62 -120 3 -120 3 0 -66z m180
19 c9 -3 16 -15 16 -25 0 -17 -8 -19 -75 -19 -66 0 -75 2 -75 18 0 10 3 22 7
25 8 9 106 9 127 1z"/>
</g>
</svg>
