<?xml version="1.0" standalone="no"?>
<!DOCTYPE svg PUBLIC "-//W3C//DTD SVG 20010904//EN"
 "http://www.w3.org/TR/2001/REC-SVG-20010904/DTD/svg10.dtd">
<svg version="1.0" xmlns="http://www.w3.org/2000/svg"
 width="300.000000pt" height="300.000000pt" viewBox="0 0 300.000000 300.000000"
 preserveAspectRatio="xMidYMid meet">
<metadata>
Created by potrace 1.10, written by Peter Selinger 2001-2011
</metadata>
<g transform="translate(0.000000,300.000000) scale(0.100000,-0.100000)"
fill="#39FF14" stroke="none">
<path d="M1350 2500 c0 -30 0 -30 -60 -30 -33 0 -60 -3 -60 -7 0 -5 3 -18 6
-30 6 -20 13 -23 60 -23 53 0 54 0 54 30 l0 30 180 0 180 0 0 -30 0 -30 85 0
85 0 0 -30 c0 -27 3 -30 30 -30 27 0 30 -3 30 -30 0 -27 3 -30 30 -30 30 0 30
-1 30 -55 0 -54 0 -55 30 -55 l30 0 0 -150 0 -150 -30 0 c-30 0 -30 -1 -30
-55 0 -56 -3 -60 -42 -56 -14 2 -18 -5 -18 -28 0 -28 -3 -31 -30 -31 -27 0
-30 -3 -30 -30 0 -30 0 -30 -60 -30 -60 0 -60 0 -60 -30 0 -30 0 -30 60 -30
60 0 60 0 60 30 0 27 3 30 30 30 27 0 30 3 30 31 0 30 2 31 30 26 29 -6 30 -5
30 29 0 34 1 35 30 29 l30 -7 0 61 0 61 30 0 30 0 0 150 0 150 -30 0 c-30 0
-30 0 -30 60 l0 60 -30 -6 c-28 -6 -30 -5 -30 25 0 28 -3 31 -30 31 -27 0 -30
3 -30 30 0 27 -3 30 -30 30 -27 0 -30 3 -30 30 l0 30 -85 0 -85 0 0 30 0 30
-180 0 -180 0 0 -30z"/>
<path d="M1120 2380 c0 -27 -3 -30 -30 -30 -27 0 -30 -3 -30 -31 0 -30 -2 -31
-30 -25 -29 5 -30 4 -30 -29 0 -32 2 -35 30 -35 27 0 30 3 30 30 0 27 3 30 30
30 27 0 30 3 30 30 0 30 0 30 60 30 60 0 60 0 60 30 0 30 0 30 -60 30 -60 0
-60 0 -60 -30z"/>
<path d="M940 2180 c0 -60 0 -60 -30 -60 l-30 0 0 -90 0 -90 30 0 c27 0 30 -3
30 -30 l0 -30 151 0 152 0 -6 30 c-6 28 -5 30 26 30 l33 0 -4 60 -4 60 31 0
c28 0 31 3 31 30 l0 30 180 0 180 0 0 -90 0 -90 -30 0 c-27 0 -30 -3 -30 -30
0 -27 -3 -30 -30 -30 -27 0 -30 -3 -30 -30 0 -30 0 -30 -60 -30 l-60 0 0 -31
c0 -29 -2 -30 -30 -24 -29 6 -30 5 -30 -29 0 -34 -1 -35 -30 -29 -28 5 -30 4
-30 -26 0 -28 -3 -31 -31 -31 l-32 0 6 -60 5 -60 -31 0 -32 0 0 -235 0 -235
27 0 28 0 2 233 3 232 28 3 c26 3 27 5 27 63 0 59 0 59 29 59 25 0 30 4 33 28
2 23 7 27 31 25 23 -2 27 2 27 27 0 33 30 45 86 34 33 -6 34 -5 34 25 0 28 3
31 30 31 27 0 30 3 30 30 0 27 3 30 30 30 27 0 30 3 30 30 0 26 4 30 28 30
l27 0 0 90 0 90 -27 0 c-24 0 -28 4 -28 30 l0 30 -180 0 -180 0 0 -30 c0 -27
-3 -30 -30 -30 -27 0 -30 -3 -30 -30 0 -27 -3 -30 -29 -30 -28 0 -29 -2 -24
-34 3 -19 3 -46 -1 -60 l-6 -26 -145 0 -145 0 0 90 0 90 30 0 c30 0 30 1 30
54 0 47 -3 54 -22 60 -13 3 -26 6 -30 6 -5 0 -8 -27 -8 -60z"/>
<path d="M1710 1560 c0 -27 -3 -30 -30 -30 -27 0 -30 -3 -30 -30 0 -27 -3 -30
-30 -30 l-30 0 0 -205 0 -205 -144 0 c-122 0 -145 -2 -150 -16 -16 -43 -13
-44 144 -44 l150 0 0 30 c0 27 3 30 30 30 l30 0 0 205 0 205 30 0 c27 0 30 3
30 30 0 27 3 30 31 30 28 0 31 3 25 23 -3 12 -6 25 -6 30 0 4 -11 7 -25 7 -21
0 -25 -5 -25 -30z"/>
<path d="M1294 850 c5 -28 4 -30 -27 -30 l-32 0 0 -145 0 -145 32 0 c31 0 32
-2 27 -30 l-6 -30 151 0 151 0 0 30 c0 27 3 30 30 30 l30 0 0 145 0 145 -30 0
c-27 0 -30 3 -30 30 l0 30 -151 0 -151 0 6 -30z m296 -175 l0 -146 -147 3
-148 3 -3 129 c-1 72 0 136 2 143 4 10 41 13 151 13 l145 0 0 -145z"/>
</g>
</svg>
