<?xml version="1.0" standalone="no"?>
<!DOCTYPE svg PUBLIC "-//W3C//DTD SVG 20010904//EN"
 "http://www.w3.org/TR/2001/REC-SVG-20010904/DTD/svg10.dtd">
<svg version="1.0" xmlns="http://www.w3.org/2000/svg"
 width="300.000000pt" height="300.000000pt" viewBox="0 0 300.000000 300.000000"
 preserveAspectRatio="xMidYMid meet">
<metadata>
Created by potrace 1.10, written by Peter Selinger 2001-2011
</metadata>
<g transform="translate(0.000000,300.000000) scale(0.100000,-0.100000)"
fill="#39FF14" stroke="none">
<path d="M1570 2970 c0 -28 -3 -30 -35 -30 -32 0 -35 -2 -35 -30 0 -27 -3 -30
-30 -30 -27 0 -30 -3 -30 -32 l0 -33 -95 3 -95 4 0 -36 0 -36 -60 0 c-60 0
-60 0 -60 -30 l0 -30 -65 0 -65 0 0 -30 c0 -27 -3 -30 -30 -30 -26 0 -30 -3
-30 -29 0 -24 5 -29 30 -33 28 -4 30 -3 30 29 l0 33 65 0 65 0 0 30 c0 30 0
30 60 30 60 0 60 0 60 30 l0 29 98 3 c53 2 166 2 250 0 l152 -3 0 -29 0 -30
65 0 65 0 0 -30 c0 -30 0 -30 60 -30 59 0 60 0 60 -28 0 -37 4 -39 40 -34 25
4 30 9 30 33 0 26 -3 29 -35 29 -32 0 -35 2 -35 30 0 30 0 30 -60 30 -60 0
-60 0 -60 30 l0 30 -65 0 -65 0 0 36 c0 35 -1 36 -30 31 l-30 -6 0 94 c0 90
-1 95 -21 95 -16 0 -20 -5 -16 -19 9 -35 -8 -41 -28 -11 -27 40 -55 40 -55 0z
m60 -95 l0 -65 -66 0 -65 0 3 33 c3 27 8 33 33 37 17 3 30 11 31 18 1 6 2 19
3 27 0 10 12 15 31 15 l30 0 0 -65z"/>
<path d="M1380 2713 c0 -19 -6 -23 -32 -23 l-33 0 3 -60 c3 -42 8 -60 17 -60
7 0 20 -3 29 -6 12 -5 16 0 16 19 0 37 -10 56 -25 51 -18 -7 -30 15 -15 29 10
9 11 9 6 0 -5 -9 0 -13 14 -13 14 0 20 5 18 18 -2 13 5 18 30 20 24 2 32 8 32
22 0 13 -5 17 -15 14 -8 -4 -12 -10 -9 -15 10 -16 -9 -9 -22 9 -12 16 -13 15
-14 -5z"/>
<path d="M1691 2683 c-1 -52 -1 -53 29 -53 26 0 30 4 30 26 0 22 -2 24 -15 14
-12 -10 -16 -9 -21 6 -18 57 -23 58 -23 7z"/>
<path d="M1532 2702 c-22 -2 -36 -10 -43 -25 -6 -12 -23 -30 -40 -39 -16 -9
-29 -24 -29 -32 0 -8 -8 -20 -17 -25 -15 -9 -14 -10 10 -11 23 0 27 4 27 30 0
27 3 30 30 30 27 0 30 3 30 30 l0 30 62 0 c34 0 59 3 56 6 -8 7 -45 10 -86 6z"/>
<path d="M1631 2539 c1 -103 4 -141 9 -114 8 41 4 255 -5 264 -3 2 -4 -65 -4
-150z"/>
<path d="M1190 2614 c0 -11 5 -14 16 -10 9 3 20 6 25 6 5 0 9 5 9 10 0 6 -11
10 -25 10 -16 0 -25 -6 -25 -16z"/>
<path d="M1757 2623 c-9 -8 -9 -46 -1 -67 9 -23 23 -20 17 4 -3 12 0 20 6 20
7 0 10 -4 6 -9 -3 -5 -1 -12 5 -16 6 -4 8 -10 5 -15 -3 -5 -1 -11 5 -15 6 -4
10 14 10 49 0 52 -2 56 -23 56 -13 0 -27 -3 -30 -7z"/>
<path d="M880 2506 l0 -66 -32 0 -33 0 0 -125 0 -125 33 0 32 0 0 -65 0 -64
30 6 c29 5 30 4 30 -31 l0 -36 -345 0 -345 0 0 -60 0 -60 36 0 c34 0 35 -1 32
-32 l-3 -33 63 4 62 3 0 -36 0 -36 125 0 125 0 0 -30 c0 -27 3 -30 33 -30 l32
0 -3 -95 -3 -95 37 0 c35 0 36 -1 31 -30 l-6 -30 64 0 65 0 0 -65 0 -64 30 6
30 6 0 -67 0 -66 36 0 c35 0 36 -1 31 -30 -6 -29 -5 -30 28 -30 l35 0 0 -65 0
-65 30 0 30 0 0 -220 0 -219 30 6 30 6 0 -97 0 -96 -30 0 -30 0 0 -187 0 -188
155 0 155 0 0 159 0 158 36 -7 36 -6 -4 95 -3 96 33 0 c30 0 32 2 32 35 0 32
2 35 30 35 28 0 30 -3 30 -35 l0 -35 66 0 67 0 -5 65 -6 65 34 0 34 0 0 125 0
125 30 0 30 0 0 155 0 155 30 0 30 0 0 95 0 95 36 0 36 0 -4 60 -3 60 33 0
c30 0 32 2 32 35 l0 35 155 0 155 0 0 -35 0 -35 155 0 155 0 0 65 0 65 -30 0
c-27 0 -30 3 -30 30 l0 30 -65 0 -65 0 7 30 6 30 -131 0 -131 0 6 36 6 35
-222 -3 -221 -3 0 33 c0 29 3 32 30 32 27 0 30 3 30 30 0 27 3 30 30 30 27 0
30 3 30 30 0 28 3 30 36 30 34 0 35 1 32 33 -3 28 -7 32 -35 35 -32 3 -33 2
-33 -32 0 -33 -2 -36 -30 -36 -27 0 -30 -3 -30 -30 0 -27 -3 -30 -30 -30 -27
0 -30 -3 -30 -30 l0 -30 -64 0 -65 0 -3 48 c-4 46 -4 46 -12 14 -6 -24 -12
-30 -21 -22 -14 12 -25 3 -25 -21 0 -12 -9 -19 -27 -21 -21 -2 -29 -9 -31 -28
-3 -24 -3 -24 11 -5 13 16 17 17 31 6 14 -12 16 -11 16 8 0 17 6 21 29 21 25
0 30 -4 33 -27 3 -25 8 -28 43 -31 74 -5 85 -10 85 -41 l0 -29 95 5 95 6 0
-120 c0 -126 -5 -143 -47 -143 -21 0 -23 -4 -23 -60 0 -60 0 -60 -30 -60 l-30
0 0 -95 0 -95 -30 0 -29 0 -3 -152 -3 -153 -27 -3 -28 -3 0 -109 c0 -60 -3
-115 -6 -124 -4 -10 -18 -16 -36 -16 -27 0 -29 -2 -23 -29 7 -34 -4 -44 -40
-35 -19 5 -25 12 -25 35 0 26 -4 29 -30 29 -25 0 -30 -4 -30 -25 0 -29 -30
-45 -84 -45 -29 0 -34 -4 -40 -31 -3 -17 -6 -71 -6 -120 0 -93 -2 -96 -47 -90
-10 1 -13 -30 -13 -129 l0 -130 -95 0 -95 0 0 160 0 160 33 0 c33 0 34 1 31
38 -2 20 -3 77 -3 126 l-1 88 -30 -4 -30 -5 0 187 0 188 -30 5 c-29 6 -30 8
-30 67 l0 60 -30 0 c-27 0 -30 3 -30 30 0 27 -3 30 -30 30 -25 0 -30 4 -36 35
-3 19 -4 46 -2 59 4 21 0 25 -29 31 -33 6 -33 6 -33 65 0 57 -1 59 -27 62 -22
2 -29 9 -31 31 -3 26 -5 27 -61 27 -57 0 -59 1 -65 31 -3 17 -6 116 -6 220 l0
189 65 0 65 0 0 30 c0 27 3 30 30 30 27 0 30 -3 30 -29 0 -26 4 -30 33 -33 28
-3 32 -7 32 -30 -1 -28 0 -28 62 -28 63 0 63 0 63 -29 0 -29 1 -29 60 -33 51
-2 60 0 60 14 0 9 3 23 6 32 5 14 -4 16 -60 16 l-66 0 0 30 0 30 -66 0 -66 0
6 30 c5 29 4 30 -29 30 -33 0 -35 2 -35 35 0 32 -2 35 -30 35 -30 0 -30 0 -30
60 0 60 0 60 -30 60 l-30 0 0 125 0 125 30 0 31 0 -3 63 c-3 59 -4 62 -30 65
l-28 3 0 -65z m-122 -662 l0 -95 -32 3 c-26 3 -31 7 -34 33 l-3 30 -90 -4
c-50 -1 -106 0 -125 3 -30 6 -34 11 -34 36 0 30 0 30 -59 30 -44 0 -60 4 -65
16 -17 44 -18 44 218 44 l224 0 0 -96z m1344 -135 c-3 -39 0 -69 9 -85 9 -19
10 -27 1 -36 -6 -6 -14 -10 -16 -7 -10 10 -10 189 0 189 6 0 9 -22 6 -61z
m206 36 c6 -3 12 -16 12 -29 l0 -25 123 -3 122 -3 3 -27 c3 -27 5 -28 63 -28
l59 0 0 -34 0 -34 -101 -1 c-133 -1 -149 3 -149 41 l0 29 -156 -2 -156 -1 0
61 c1 34 1 62 1 64 1 4 164 -4 179 -8z"/>
<path d="M548 1873 c23 -2 59 -2 80 0 20 2 1 4 -43 4 -44 0 -61 -2 -37 -4z"/>
<path d="M1130 2473 l0 -93 30 0 c27 0 30 -3 30 -32 l0 -33 95 0 95 0 0 63 0
62 -30 0 c-27 0 -30 -3 -30 -30 l0 -30 -65 0 -65 0 0 65 c0 49 3 65 14 65 32
0 46 -13 46 -41 0 -26 4 -29 30 -29 23 0 30 5 32 20 0 11 1 26 2 33 1 8 -10
11 -32 9 -33 -4 -34 -3 -30 30 l3 33 -62 0 -63 0 0 -92z"/>
<path d="M2077 2563 c-4 -3 -7 -33 -7 -65 0 -58 0 -58 30 -58 l30 0 0 -125 0
-125 -32 0 -33 0 3 -60 c3 -42 8 -60 17 -60 7 0 20 -3 29 -6 14 -5 16 4 16 60
l0 66 30 0 30 0 0 125 0 125 -30 0 -30 0 0 65 c0 61 -1 65 -23 65 -13 0 -27
-3 -30 -7z"/>
<path d="M1940 2530 c0 -31 9 -35 45 -21 19 8 19 8 -2 15 -13 4 -23 14 -23 22
0 8 -4 14 -10 14 -5 0 -10 -13 -10 -30z"/>
<path d="M1363 2524 c-3 -8 -1 -25 5 -37 10 -20 11 -18 11 16 1 39 -5 48 -16
21z"/>
<path d="M1750 2470 c0 -27 -3 -30 -30 -30 -27 0 -30 -3 -30 -30 0 -27 -3 -30
-30 -30 l-30 0 0 -65 0 -65 88 1 c48 1 90 3 93 5 4 2 4 15 1 29 -4 23 -8 25
-63 25 l-59 0 0 35 c0 32 2 35 30 35 27 0 30 3 30 30 0 28 3 30 35 30 l35 0 0
-60 c0 -45 4 -60 14 -60 8 0 21 -3 30 -6 14 -5 16 6 16 90 l0 96 -65 0 -65 0
0 -30z"/>
<path d="M2012 2373 l-2 -123 -36 0 c-31 0 -35 -3 -32 -22 2 -13 10 -23 18
-23 9 0 14 7 12 18 -2 11 4 17 18 17 11 0 23 6 26 13 2 7 3 65 1 128 l-3 114
-2 -122z"/>
<path d="M1070 2315 l0 -65 -61 0 c-33 0 -58 -4 -55 -8 7 -12 104 -8 117 5 5
5 11 28 12 50 1 22 8 47 15 55 13 16 7 28 -15 28 -9 0 -13 -17 -13 -65z"/>
<path d="M924 2312 c-8 -5 -7 -16 2 -37 l13 -30 1 38 c0 40 0 40 -16 29z"/>
<path d="M1190 2257 c0 -30 4 -46 10 -42 13 8 13 55 0 75 -7 11 -10 2 -10 -33z"/>
<path d="M1234 2266 c-3 -14 -1 -33 5 -43 8 -15 10 -10 11 25 0 47 -6 55 -16
18z"/>
<path d="M1867 2273 c-11 -10 -8 -73 3 -73 6 0 10 18 10 40 0 41 -2 45 -13 33z"/>
<path d="M1631 2213 c-1 -19 -7 -23 -31 -23 -25 0 -30 -4 -30 -25 0 -24 1 -24
18 -7 10 9 27 22 37 27 11 7 15 18 12 30 -4 18 -5 18 -6 -2z"/>
<path d="M1800 2168 c0 -43 -5 -67 -17 -80 -15 -17 -15 -18 5 -18 21 0 22 5
22 80 0 44 -2 80 -5 80 -3 0 -5 -28 -5 -62z"/>
<path d="M1760 2181 c0 -25 4 -40 10 -36 5 3 8 19 6 36 -5 47 -16 47 -16 0z"/>
<path d="M1190 2124 c0 -56 2 -65 16 -60 9 3 22 6 30 6 9 0 14 11 14 30 0 27
3 30 30 30 17 0 30 3 30 8 0 4 3 17 6 30 6 21 4 22 -60 22 l-66 0 0 -66z"/>
<path d="M1380 2160 c0 -27 -3 -30 -30 -30 -27 0 -30 -3 -30 -30 0 -27 3 -30
30 -30 27 0 30 3 30 30 0 30 0 30 60 30 60 0 60 0 60 -29 0 -34 -20 -44 -78
-39 -35 3 -37 1 -40 -29 -3 -29 -7 -33 -33 -33 -26 0 -29 -3 -29 -30 0 -27 3
-30 30 -30 27 0 30 3 30 30 0 30 0 30 60 30 60 0 60 0 60 -30 0 -28 3 -30 36
-30 35 0 36 -1 32 -30 -4 -28 -3 -30 29 -30 30 0 33 3 33 30 0 27 3 30 30 30
27 0 30 3 30 30 0 27 3 30 30 30 l30 0 0 65 0 65 -60 0 c-60 0 -60 0 -60 -30
0 -27 3 -30 30 -30 28 0 30 -3 30 -35 0 -32 -2 -35 -30 -35 -27 0 -30 -3 -30
-31 0 -28 -2 -30 -32 -27 -28 2 -34 8 -36 31 -3 23 -8 27 -33 27 -27 0 -29 3
-29 35 0 32 3 35 29 35 21 0 30 6 35 23 9 35 8 37 -29 37 -32 0 -35 2 -35 30
0 30 0 30 -60 30 -60 0 -60 0 -60 -30z"/>
<path d="M1268 2062 c-11 -2 -18 -13 -18 -27 0 -36 -19 -77 -33 -72 -6 2 -12
20 -12 40 -1 20 -4 40 -9 44 -4 4 -6 -17 -4 -47 3 -52 5 -55 31 -58 24 -3 27
0 27 27 0 27 3 31 28 31 36 0 40 5 35 35 -5 26 -18 34 -45 27z"/>
<path d="M1570 2029 c0 -27 3 -30 28 -27 21 2 28 9 30 31 3 24 0 27 -27 27
-28 0 -31 -3 -31 -31z"/>
<path d="M1260 1925 c0 -9 6 -12 16 -8 9 3 20 0 25 -8 6 -11 9 -8 9 9 0 17 -6
22 -25 22 -15 0 -25 -6 -25 -15z"/>
<path d="M940 1903 c0 -19 5 -23 33 -22 31 0 31 1 7 10 -13 6 -28 15 -32 22
-5 8 -8 4 -8 -10z"/>
<path d="M1478 1812 l-158 -3 0 -30 0 -30 75 2 c41 1 75 5 75 10 0 5 6 6 14 3
8 -3 71 -6 140 -7 l126 -2 0 28 c0 23 -4 27 -27 28 -16 0 -41 1 -58 2 -16 1
-101 1 -187 -1z"/>
<path d="M1072 1653 l-2 -151 23 6 c17 5 19 7 5 10 -15 3 -18 20 -21 145 l-3
142 -2 -152z"/>
<path d="M942 1693 l1 -58 6 45 c4 31 11 45 21 45 12 0 16 -24 20 -130 l6
-130 2 143 2 142 -30 0 -30 0 2 -57z"/>
<path d="M1240 1665 c0 -69 -2 -76 -22 -85 -22 -8 -22 -9 5 -9 l27 -1 0 85 c0
47 -2 85 -5 85 -3 0 -5 -34 -5 -75z"/>
<path d="M1323 1650 c0 -41 2 -58 4 -37 2 20 2 54 0 75 -2 20 -4 3 -4 -38z"/>
<path d="M1429 1611 c-6 -18 -19 -32 -32 -34 -15 -3 -12 -5 11 -6 29 -1 32 2
32 28 0 26 4 30 33 34 l32 4 -33 1 c-28 2 -35 -2 -43 -27z"/>
<path d="M882 1578 c1 -45 2 -47 5 -15 2 21 11 41 19 44 21 8 17 23 -6 23 -18
0 -20 -6 -18 -52z"/>
<path d="M1737 1573 c-3 -26 -10 -49 -16 -51 -14 -5 -4 -22 12 -22 9 0 14 20
15 60 3 72 -3 79 -11 13z"/>
<path d="M1510 1557 c-6 -54 -4 -58 25 -46 16 6 17 8 3 8 -13 1 -18 12 -20 44
l-3 42 -5 -48z"/>
<path d="M1177 1519 c-7 -54 -23 -71 -36 -38 -9 23 -10 23 -10 -8 -1 -30 2
-33 29 -33 30 0 30 0 30 60 0 70 -5 77 -13 19z"/>
<path d="M1884 1410 c0 -85 2 -120 3 -77 2 42 2 112 0 155 -1 42 -3 7 -3 -78z"/>
<path d="M1327 1543 c-4 -3 -7 -55 -7 -115 l0 -108 30 0 30 0 0 117 c0 64 -3
113 -7 109 -5 -4 -8 -50 -9 -102 0 -56 -5 -99 -12 -106 -19 -19 -24 13 -20
117 1 52 3 95 2 95 0 0 -4 -3 -7 -7z"/>
<path d="M1571 1428 c0 -38 2 -68 7 -68 4 0 6 21 4 48 -5 82 -9 89 -11 20z"/>
<path d="M1679 1395 c-1 -14 -3 -29 -4 -35 -1 -5 -3 -14 -4 -19 0 -5 -11 -12
-23 -14 -17 -3 -14 -5 10 -6 l32 -1 0 50 c0 51 -9 71 -11 25z"/>
<path d="M1070 1359 c0 -17 3 -19 14 -10 21 18 34 -7 39 -74 3 -53 3 -50 5 23
l2 82 -30 0 c-24 0 -30 -4 -30 -21z"/>
<path d="M1572 1228 l-2 -98 30 0 30 0 -1 85 c0 47 -5 88 -10 91 -5 3 -9 -30
-9 -76 0 -61 -3 -81 -12 -78 -9 3 -15 35 -19 89 l-5 84 -2 -97z"/>
<path d="M1190 1198 c0 -57 8 -61 14 -7 2 20 9 34 17 34 11 0 15 -25 20 -105
l5 -105 2 118 2 117 -30 0 c-29 0 -30 -1 -30 -52z"/>
<path d="M1822 1158 l2 -93 5 84 c5 72 9 85 26 92 17 7 16 8 -7 8 l-28 1 2
-92z"/>
<path d="M1380 1003 l0 -63 -30 0 -30 0 2 -72 c2 -70 2 -71 5 -15 4 51 7 58
33 72 26 14 30 21 30 59 0 51 26 84 35 44 2 -12 6 -50 8 -83 2 -45 4 -37 5 30
l2 90 -30 0 -30 0 0 -62z"/>
<path d="M1632 938 l1 -63 6 50 c4 35 11 50 21 50 11 0 15 -17 18 -75 5 -105
12 -101 12 8 l0 92 -30 0 -30 0 2 -62z"/>
<path d="M1380 820 c0 -60 0 -60 30 -60 30 0 30 0 30 60 0 60 0 60 -30 60 -30
0 -30 0 -30 -60z"/>
<path d="M1572 823 c1 -51 2 -53 5 -15 3 25 10 45 19 49 21 8 17 23 -6 23 -18
0 -20 -6 -18 -57z"/>
<path d="M1318 690 c4 -59 4 -60 33 -60 29 0 29 0 29 60 l0 60 -32 0 -33 0 3
-60z"/>
<path d="M1440 660 l0 -90 30 0 30 0 0 90 0 90 -30 0 -30 0 0 -90z m46 45 c3
-8 -1 -24 -10 -36 l-15 -22 2 22 c1 11 5 21 10 21 5 0 4 7 -3 15 -9 11 -9 15
-1 15 6 0 14 -7 17 -15z"/>
<path d="M50 676 c0 -19 5 -24 20 -23 22 1 27 13 8 20 -10 4 -10 6 0 6 20 2
13 21 -8 21 -15 0 -20 -7 -20 -24z"/>
<path d="M52 513 c3 -89 5 -98 23 -102 20 -3 20 -3 0 20 -17 19 -18 22 -2 16
14 -5 17 -1 17 24 0 21 -4 28 -13 23 -9 -6 -9 -4 1 7 18 19 15 57 -5 62 -17 4
-17 5 0 6 10 0 15 6 12 11 -4 6 -11 7 -17 4 -7 -4 -8 -2 -4 5 4 6 12 9 17 6 5
-4 9 -1 9 4 0 6 -9 11 -20 11 -19 0 -20 -6 -18 -97z"/>
<path d="M1443 440 c0 -36 2 -50 4 -32 2 17 2 47 0 65 -2 17 -4 3 -4 -33z"/>
<path d="M1382 288 l2 -93 3 78 c3 57 8 79 18 84 22 8 18 23 -5 23 -19 0 -20
-6 -18 -92z"/>
<path d="M50 350 c-13 -8 -13 -11 2 -26 12 -12 14 -23 7 -40 -5 -16 -5 -24 2
-24 6 0 7 -5 4 -10 -4 -6 -11 -8 -16 -5 -5 4 -9 1 -9 -4 0 -6 10 -10 23 -9 21
2 23 7 24 65 2 64 -5 74 -37 53z"/>
<path d="M59 203 c-1 -5 -1 -12 0 -17 1 -4 -4 -14 -10 -22 -9 -11 -8 -14 3
-14 19 0 18 -40 -2 -41 -10 0 -11 -2 -2 -6 15 -6 16 -33 1 -33 -16 0 -1 -17
21 -23 21 -5 23 14 6 42 -6 9 -5 12 1 8 6 -4 10 9 10 33 0 22 -4 37 -10 33 -5
-3 -4 4 2 15 6 11 11 23 11 26 0 9 -30 7 -31 -1z"/>
</g>
</svg>
