<?xml version="1.0" standalone="no"?>
<!DOCTYPE svg PUBLIC "-//W3C//DTD SVG 20010904//EN"
 "http://www.w3.org/TR/2001/REC-SVG-20010904/DTD/svg10.dtd">
<svg version="1.0" xmlns="http://www.w3.org/2000/svg"
 width="300.000000pt" height="300.000000pt" viewBox="0 0 300.000000 300.000000"
 preserveAspectRatio="xMidYMid meet">
<metadata>
Created by potrace 1.10, written by Peter Selinger 2001-2011
</metadata>
<g transform="translate(0.000000,300.000000) scale(0.100000,-0.100000)"
fill="#39FF14" stroke="none">
<path d="M1316 2799 l7 -72 -136 5 -137 5 0 -69 0 -68 -132 0 -133 0 0 -127 0
-126 -67 2 -68 2 0 -71 0 -72 -65 4 -65 4 0 -658 0 -658 68 0 67 0 -3 -134 -3
-133 53 4 c75 6 78 9 31 29 -35 14 -45 24 -53 53 -5 20 -10 39 -10 44 0 4 27
7 60 7 l61 0 -3 -136 -3 -135 67 3 68 3 0 -62 0 -63 65 0 65 0 0 -65 0 -65 65
0 65 0 0 -70 0 -70 70 6 70 7 0 -62 c0 -48 3 -61 15 -61 12 0 15 13 15 58 0
69 -14 86 -75 98 -46 8 -55 17 -55 60 0 40 -29 66 -83 73 -41 6 -42 7 -48 49
-7 54 -27 74 -81 81 -40 6 -43 8 -49 43 -8 50 -34 78 -73 78 -17 0 -36 4 -41
8 -12 8 -35 133 -35 187 0 40 -29 65 -76 65 -35 0 -44 13 -44 64 0 43 -33 74
-85 78 l-40 3 -3 544 c-1 393 1 548 9 557 6 8 27 14 45 14 47 0 60 27 68 133
9 115 10 117 57 117 70 0 87 40 80 190 -3 59 6 64 117 62 120 -2 142 9 151 79
l6 44 107 5 c119 6 148 20 148 72 0 66 6 68 166 68 81 0 154 -5 165 -10 13 -8
19 -7 19 0 0 7 17 10 43 8 34 -2 43 -7 45 -24 3 -18 -5 -23 -39 -32 -24 -6
-46 -9 -50 -6 -5 3 -15 -9 -23 -25 -14 -26 -15 -141 -13 -936 l2 -907 24 -19
c19 -16 40 -19 127 -19 l104 0 0 -25 0 -25 -103 0 c-90 0 -106 -3 -125 -20
-12 -11 -24 -31 -27 -43 -3 -12 -5 -159 -3 -325 l3 -304 28 -24 c18 -15 41
-24 61 -24 31 0 34 -3 40 -35 4 -21 13 -35 21 -35 11 0 15 14 15 55 l0 55 -65
0 -65 0 0 330 0 330 135 0 135 0 0 -71 c0 -61 2 -70 16 -65 9 3 38 6 65 6 l49
0 0 65 0 65 -65 0 -65 0 0 65 0 65 -135 0 -135 0 0 920 0 920 65 0 65 0 0 34
c0 18 3 48 6 65 l7 31 -267 0 -266 0 6 -71z m-663 -666 l4 -53 -59 0 -58 0 6
28 c14 58 23 72 46 72 13 0 30 5 38 10 17 11 17 12 23 -57z m1402 -1433 c0
-22 -39 -19 -43 3 -3 15 1 18 20 15 12 -2 23 -10 23 -18z"/>
<path d="M1948 2733 l-108 -4 0 -42 c0 -23 -3 -52 -6 -64 l-6 -23 136 0 136 0
0 -60 0 -60 65 0 65 0 0 -65 0 -65 65 0 65 0 0 49 c0 27 3 56 6 65 5 14 -4 16
-65 16 l-71 0 0 60 0 60 -65 0 -65 0 0 70 c0 67 -1 70 -22 68 -13 -1 -71 -4
-130 -5z m107 -63 c0 -12 -18 -16 -87 -18 -83 -3 -88 -2 -88 18 0 20 5 21 88
18 69 -2 87 -6 87 -18z m133 -127 c5 -18 -28 -29 -38 -12 -5 7 -6 17 -3 22 7
12 35 5 41 -10z m127 -129 c0 -10 -8 -20 -17 -22 -18 -3 -26 27 -11 42 12 11
28 0 28 -20z"/>
<path d="M650 2443 c0 -21 5 -45 10 -53 8 -12 10 -10 10 8 0 37 18 62 45 62
13 0 27 5 30 10 4 6 -13 10 -44 10 l-51 0 0 -37z"/>
<path d="M2370 2253 c0 -54 -3 -115 -6 -135 l-7 -38 72 0 71 0 0 -201 0 -202
-65 6 c-35 3 -66 3 -69 -1 -2 -4 -2 -36 1 -71 l6 -63 63 4 64 4 0 -328 0 -328
-71 0 -71 0 6 -31 c3 -17 6 -47 6 -65 l0 -34 65 0 65 0 0 65 0 65 60 0 60 0 0
590 0 590 -60 0 -60 0 0 135 0 135 -65 0 -65 0 0 -97z m80 -38 c0 -78 -2 -85
-20 -85 -18 0 -20 7 -20 85 0 78 2 85 20 85 18 0 20 -7 20 -85z m128 -723 c1
-359 -1 -542 -8 -542 -5 0 -13 -1 -17 -2 -5 -2 -10 132 -13 297 -4 231 -9 307
-20 332 -12 28 -12 39 0 75 9 28 15 105 17 216 4 157 6 173 21 170 16 -3 17
-44 20 -546z m-78 128 l0 -41 -37 7 c-49 9 -53 11 -53 34 0 13 9 22 28 26 15
3 32 7 37 9 22 7 25 3 25 -35z m-50 -785 c0 -18 -5 -25 -20 -25 -15 0 -20 7
-20 25 0 18 5 25 20 25 15 0 20 -7 20 -25z"/>
<path d="M769 1831 c-24 -25 -29 -38 -29 -80 0 -49 -1 -50 -32 -54 -29 -3 -28
-4 9 -5 41 -2 73 -22 73 -45 0 -9 37 -12 130 -12 72 0 130 3 130 8 0 10 62 9
78 -2 7 -4 14 -28 15 -52 3 -55 23 -72 97 -79 54 -5 55 -6 61 -40 6 -34 6 -34
8 10 1 25 5 50 9 57 4 6 34 16 67 21 55 9 57 10 19 11 -46 1 -54 13 -54 83 0
45 -36 78 -85 78 -36 0 -45 13 -45 60 0 19 -9 36 -26 49 -25 20 -40 21 -211
21 l-185 0 -29 -29z m411 -76 l0 -65 70 0 70 0 0 -70 0 -70 -70 0 -70 0 0 65
0 65 -67 1 c-38 0 -128 0 -200 -1 l-133 -1 0 71 0 70 200 0 200 0 0 -65z"/>
<path d="M1725 1810 c-6 -10 1 -14 48 -24 22 -5 27 -12 27 -36 0 -25 -4 -30
-23 -30 -13 0 -32 -7 -43 -15 -17 -13 -14 -14 39 -15 l57 0 0 43 c0 23 3 52 6
65 6 21 4 22 -49 22 -31 0 -59 -5 -62 -10z"/>
<path d="M1840 1685 c0 0 -2 -30 -3 -67 l-3 -68 68 0 68 0 0 -60 0 -60 201 0
c179 0 200 2 195 16 -3 9 -6 36 -6 60 l0 44 -195 0 -195 0 0 69 0 69 -65 -2
c-36 0 -65 -1 -65 -1z m80 -65 c0 -13 -7 -20 -20 -20 -19 0 -27 20 -13 33 13
14 33 6 33 -13z m395 -130 c0 -13 -24 -15 -144 -18 -139 -2 -171 3 -156 27 4
8 53 11 153 9 123 -3 147 -5 147 -18z"/>
<path d="M1452 1493 l-2 -63 -67 0 c-48 -1 -63 -3 -52 -10 20 -12 107 -6 120
7 6 6 8 37 6 69 l-3 59 -2 -62z"/>
<path d="M2369 983 c4 -47 4 -47 11 -15 9 40 9 40 44 46 47 8 42 16 -10 16
l-49 0 4 -47z"/>
<path d="M1053 930 c-31 -13 -43 -41 -43 -103 0 -68 24 -94 90 -99 44 -3 45
-3 52 -47 4 -24 12 -49 17 -55 15 -18 202 -39 304 -35 83 4 90 6 113 32 35 41
34 127 -1 162 -22 23 -31 25 -123 25 -95 0 -100 1 -106 23 -3 12 -6 31 -6 43
0 11 -10 30 -23 42 -21 20 -34 22 -138 21 -63 0 -124 -4 -136 -9z m263 -95
l-7 -65 131 0 130 0 0 -69 0 -70 -195 0 -195 0 0 60 0 59 28 -6 c54 -13 72
-24 72 -42 0 -10 7 -27 15 -38 13 -17 14 -14 15 44 l0 62 -130 0 -130 0 0 65
0 65 136 0 137 0 -7 -65z"/>
<path d="M2230 706 l0 -64 63 -4 c34 -2 64 -2 68 1 3 4 3 34 1 69 l-4 62 -64
0 -64 0 0 -64z m90 -6 c0 -13 -7 -20 -20 -20 -13 0 -20 7 -20 20 0 13 7 20 20
20 13 0 20 -7 20 -20z"/>
<path d="M2100 565 l0 -65 -65 0 -65 0 0 -125 0 -125 -69 0 -69 0 5 -63 c3
-34 6 -63 7 -63 0 -1 29 -4 64 -8 l62 -7 0 71 0 70 65 0 65 0 0 65 0 65 65 0
65 0 0 125 0 125 -65 0 -65 0 0 -65z m91 -30 c3 -27 3 -63 -1 -80 -5 -26 -11
-31 -50 -37 -55 -10 -72 -26 -79 -80 -5 -34 -10 -43 -26 -43 -18 0 -20 7 -20
80 l0 80 39 3 c47 4 85 43 86 88 0 35 8 46 30 42 10 -2 17 -19 21 -53z m-271
-355 c0 -13 -7 -20 -20 -20 -13 0 -20 7 -20 20 0 13 7 20 20 20 13 0 20 -7 20
-20z"/>
</g>
</svg>
